<svg width="20" height="20" viewBox="0 0 20 20" fill="none" xmlns="http://www.w3.org/2000/svg">
<g clip-path="url(#clip0)">
<path d="M12.5 5.41675C12.04 5.41675 11.6666 5.04341 11.6666 4.58341V3.33341H8.3333V4.58341C8.3333 5.04341 7.95996 5.41675 7.49996 5.41675C7.03996 5.41675 6.66663 5.04341 6.66663 4.58341V3.33341C6.66663 2.41425 7.41413 1.66675 8.3333 1.66675H11.6666C12.5858 1.66675 13.3333 2.41425 13.3333 3.33341V4.58341C13.3333 5.04341 12.96 5.41675 12.5 5.41675Z" fill="white"/>
<path d="M15 10.4167V11.1834C15 11.5251 14.7167 11.8084 14.375 11.8084C14.0333 11.8084 13.75 11.5251 13.75 11.1834V10.4167H6.25V11.1834C6.25 11.5251 5.96667 11.8084 5.625 11.8084C5.28333 11.8084 5 11.5251 5 11.1834V10.4167H0V16.0417C0 17.3084 1.025 18.3334 2.29167 18.3334H17.7083C18.975 18.3334 20 17.3084 20 16.0417V10.4167H15ZM17.7083 4.16675H2.29167C1.025 4.16675 0 5.19175 0 6.45841V9.16675H5V8.12508C5 7.78341 5.28333 7.50008 5.625 7.50008C5.96667 7.50008 6.25 7.78341 6.25 8.12508V9.16675H13.75V8.12508C13.75 7.78341 14.0333 7.50008 14.375 7.50008C14.7167 7.50008 15 7.78341 15 8.12508V9.16675H20V6.45841C20 5.19175 18.975 4.16675 17.7083 4.16675Z" fill="white"/>
</g>
<defs>
<clipPath id="clip0">
<rect width="20" height="20" fill="white"/>
</clipPath>
</defs>
</svg>
