<svg width="20" height="20" viewBox="0 0 20 20" fill="none" xmlns="http://www.w3.org/2000/svg">
<path d="M13.5324 6.46714C13.2496 6.1843 12.8727 6.02862 12.4712 6.02893C11.6576 6.0294 10.9713 6.68166 10.9716 7.52804C10.9717 7.9296 11.1274 8.30656 11.4102 8.58924C11.9954 9.17442 12.9465 9.17525 13.5305 8.59124C14.1166 8.00508 14.1175 7.05224 13.5324 6.46714Z" fill="white"/>
<path d="M20 0.003479L19.4139 0.00402594C15.2205 0.00801074 11.112 1.77301 8.14054 4.84716L2.31641 10.6713L9.32841 17.6832L15.1522 11.8594C16.6175 10.4471 17.8319 8.70551 18.6644 6.82281C20.2422 3.25422 19.9657 0.369847 20 0.003479ZM10.583 9.41664C9.54046 8.37403 9.54073 6.68201 10.581 5.64182C11.6239 4.59889 13.316 4.59624 14.3597 5.6399C15.4009 6.68111 15.4001 8.37633 14.3579 9.41863C13.3177 10.4587 11.6244 10.4578 10.583 9.41664Z" fill="white"/>
<path d="M0.0247803 19.1437L3.06943 16.0991L3.89663 16.9263L0.851977 19.9709L0.0247803 19.1437Z" fill="white"/>
<path d="M3.66211 18.8604L4.7528 17.7697L5.57997 18.5968L4.48928 19.6875L3.66211 18.8604Z" fill="white"/>
<path d="M0.308105 15.5067L1.39225 14.4226L2.21936 15.2497L1.13522 16.3338L0.308105 15.5067Z" fill="white"/>
<path d="M15.2217 14.0431L14.9224 13.7438L10.1556 18.5106L11.6415 19.9965L14.2826 17.3555L15.2217 14.0431Z" fill="white"/>
<path d="M2.6413 5.71354L0 8.35487L1.48903 9.84402L6.25591 5.0771L5.95658 4.77777L2.6413 5.71354Z" fill="white"/>
<path d="M1.36182 13.0497L6.94984 18.6377L8.09508 18.1045L1.89504 11.9045L1.36182 13.0497Z" fill="white"/>
</svg>
