<svg width="41" height="51" viewBox="0 0 41 51" fill="none" xmlns="http://www.w3.org/2000/svg">
<path d="M38.3539 0H2.64418C1.18935 0 -0.000976562 1.19032 -0.000976562 2.64516V47.6129C-0.000976562 49.0677 1.18935 50.2581 2.64418 50.2581H27.1113C28.5661 50.2581 30.6227 49.4427 31.6821 48.4455L39.072 41.49C40.1314 40.4928 40.9977 38.4871 40.9977 37.0323L40.999 2.64516C40.999 1.19032 39.8087 0 38.3539 0ZM30.3225 47.0005C30.0309 47.2756 29.5838 47.5408 29.0958 47.7597V40.6694C29.0958 40.215 29.279 39.8064 29.5818 39.5022C29.8847 39.1993 30.2941 39.0161 30.7477 39.0161H38.4326C38.219 39.4334 37.967 39.8057 37.7118 40.0458L30.3225 47.0005ZM39.0138 37.0323H30.7477C28.7407 37.0362 27.1152 38.6623 27.1113 40.6694V48.2742H2.64418C2.28577 48.2742 1.98289 47.9713 1.98289 47.6129V2.64516C1.98289 2.28674 2.28577 1.98387 2.64418 1.98387H38.3539C38.7123 1.98387 39.0152 2.28674 39.0152 2.64516L39.0138 37.0323Z" fill="black"/>
<path d="M30.7478 11.2498H16.1987C15.6512 11.2498 15.2068 11.6941 15.2068 12.2417C15.2068 12.7892 15.6512 13.2336 16.1987 13.2336H30.7478C31.296 13.2336 31.7397 12.7892 31.7397 12.2417C31.7397 11.6941 31.296 11.2498 30.7478 11.2498Z" fill="black"/>
<path d="M13.4041 7.41567C12.9346 7.1333 12.3255 7.28605 12.0432 7.75623L8.72876 13.2793L6.9823 11.5322C6.59478 11.1447 5.96655 11.1447 5.5797 11.5322C5.19218 11.9197 5.19218 12.5473 5.5797 12.9348L8.22486 15.58C8.43978 15.7955 8.74463 15.9 9.04684 15.863C9.34905 15.826 9.61952 15.6507 9.77625 15.3888L13.744 8.77594C14.0264 8.30709 13.8736 7.69738 13.4041 7.41567Z" fill="black"/>
<path d="M30.7478 21.1611H16.1987C15.6512 21.1611 15.2068 21.6055 15.2068 22.1531C15.2068 22.7006 15.6512 23.145 16.1987 23.145H30.7478C31.296 23.145 31.7397 22.7006 31.7397 22.1531C31.7397 21.6055 31.296 21.1611 30.7478 21.1611Z" fill="black"/>
<path d="M13.4041 17.3349C12.9346 17.0525 12.3255 17.2052 12.0432 17.6754L8.72876 23.1985L6.9823 21.4514C6.59478 21.0639 5.96655 21.0639 5.5797 21.4514C5.19218 21.8389 5.19218 22.4665 5.5797 22.854L8.22486 25.4991C8.43978 25.7147 8.74463 25.8192 9.04684 25.7822C9.34905 25.7451 9.61952 25.5699 9.77625 25.308L13.744 18.6951C14.0264 18.2263 13.8736 17.6166 13.4041 17.3349Z" fill="black"/>
</svg>
