<svg width="46" height="40" viewBox="0 0 46 40" fill="none" xmlns="http://www.w3.org/2000/svg">
<path d="M4.66673 0C2.22373 0 0.22229 2.00144 0.22229 4.44444V36.1111C0.22229 38.2463 1.97596 40 4.11118 40H41.8889C44.0242 40 45.7778 38.2463 45.7778 36.1111V10.5555C45.7778 8.42033 44.0242 6.66666 41.8889 6.66666H39.1112V1.11111C39.1111 0.529333 38.5818 5.55555e-05 38 0H4.66673ZM4.66673 2.22222H36.8889V6.66666H4.66673C3.4164 6.66666 2.44451 5.69477 2.44451 4.44444C2.44451 3.19411 3.4164 2.22222 4.66673 2.22222ZM2.44451 8.28121C3.09945 8.66265 3.85873 8.88888 4.66673 8.88888C17.1801 8.87777 31.1337 8.88888 41.8889 8.88888C42.8315 8.88888 43.5556 9.61299 43.5556 10.5555V17.2222H27.4445C25.9248 17.2222 24.6667 18.4803 24.6667 20V26.6666C24.6667 28.1863 25.9248 29.4444 27.4445 29.4444H43.5556V36.1111C43.5556 37.0536 42.8315 37.7778 41.8889 37.7778H4.11118C3.16862 37.7778 2.44451 37.0536 2.44451 36.1111V8.28121ZM27.4445 19.4444H43.5556V27.2222H27.4445C27.1175 27.2222 26.8889 26.9936 26.8889 26.6666V20C26.8889 19.673 27.1175 19.4444 27.4445 19.4444ZM33 20.5382C31.4791 20.5382 30.2223 21.795 30.2223 23.316C30.2223 24.8369 31.4791 26.0938 33 26.0938C34.521 26.0938 35.7778 24.8369 35.7778 23.316C35.7778 21.795 34.521 20.5382 33 20.5382ZM33 22.7604C33.32 22.7604 33.5556 22.996 33.5556 23.316C33.5556 23.6359 33.32 23.8715 33 23.8715C32.68 23.8715 32.4445 23.6359 32.4445 23.316C32.4445 22.996 32.68 22.7604 33 22.7604Z" fill="#282828"/>
</svg>
