<svg width="20" height="18" viewBox="0 0 20 18" fill="none" xmlns="http://www.w3.org/2000/svg">
<path d="M14.6154 5.86508H20V3.36508C20 1.77449 18.706 0.480469 17.1154 0.480469H2.88461C1.29402 0.480469 0 1.77449 0 3.36508V14.1343C0 15.7249 1.29402 17.0189 2.88461 17.0189H17.1154C18.706 17.0189 20 15.7249 20 14.1343V11.6343H14.6154C13.0248 11.6343 11.7308 10.3403 11.7308 8.74969C11.7308 7.1591 13.0248 5.86508 14.6154 5.86508Z" fill="#53565D"/>
<path d="M14.6154 7.01904C13.6611 7.01904 12.8846 7.79545 12.8846 8.74982C12.8846 9.70419 13.661 10.4806 14.6154 10.4806H20V7.01908H14.6154V7.01904ZM15.3846 9.32673H14.6154C14.2968 9.32673 14.0385 9.06841 14.0385 8.74982C14.0385 8.43123 14.2968 8.17291 14.6154 8.17291H15.3846C15.7033 8.17291 15.9616 8.43123 15.9616 8.74982C15.9616 9.06841 15.7033 9.32673 15.3846 9.32673Z" fill="#53565D"/>
</svg>
