<svg width="34" height="20" viewBox="0 0 34 20" fill="none" xmlns="http://www.w3.org/2000/svg">
<path d="M31.6877 0.699951H2.30994C1.0069 0.699951 0 1.76608 0 3.0099V10.3543V17.6395C0 18.9426 1.06613 19.9495 2.30994 19.9495H31.6877C32.9907 19.9495 33.9976 18.8834 33.9976 17.6395V10.3543V3.06913C34.0569 1.76608 32.9907 0.699951 31.6877 0.699951ZM31.7469 12.7827C31.7469 13.375 31.2731 13.8489 30.6808 13.9081C28.7855 14.0266 27.5416 15.6257 27.8378 17.4619C27.897 17.8765 27.7786 17.9357 27.4232 17.9357H6.51523C6.15985 17.9357 6.04139 17.8765 6.15985 17.4619C6.51523 15.685 5.15295 14.0266 3.55376 13.9081C3.49453 13.9081 3.4353 13.9081 3.31684 13.9081C2.72455 13.9081 2.19149 13.375 2.19149 12.7827V7.8667C2.19149 7.27441 2.66532 6.74135 3.31684 6.74135C3.37607 6.74135 3.4353 6.74135 3.55376 6.74135C5.09372 6.62289 6.51523 4.96446 6.15985 3.18758C6.10062 2.83221 6.21908 2.71375 6.51523 2.71375H27.4232C27.7786 2.71375 27.897 2.77298 27.8378 3.18758C27.5416 5.02369 28.7855 6.62289 30.6808 6.74135C31.2731 6.80057 31.7469 7.27441 31.7469 7.8667V12.7827Z" fill="#536374"/>
<path d="M16.9991 4.31323C13.6823 4.31323 10.9577 7.03778 10.9577 10.3546C10.9577 13.6715 13.6823 16.396 16.9991 16.396C20.316 16.396 23.0405 13.6715 23.0405 10.3546C23.0405 7.03778 20.316 4.31323 16.9991 4.31323ZM19.9014 8.45929H18.4799C18.4206 8.45929 18.4206 8.45929 18.3614 8.40006C18.0653 7.86699 17.473 7.57085 16.8807 7.51162C16.4661 7.51162 15.9922 7.68931 15.7553 8.04468C15.4592 8.45929 15.5776 8.87389 15.8738 9.17004C16.4661 9.82156 17.473 9.82156 18.3022 10.1177C18.776 10.2362 19.1314 10.5323 19.4275 10.8285C19.9014 11.4208 19.9014 12.1907 19.6052 12.8423C19.2498 13.6122 18.4799 14.0861 17.7099 14.2045H17.5914V14.7376C17.5914 14.9153 17.473 15.0337 17.2953 15.0337H16.8214C16.6438 15.0337 16.5253 14.9153 16.5253 14.7376V14.2045H16.4068C15.2222 14.2045 14.393 13.1976 13.9192 12.25C13.86 12.1907 13.9192 12.0723 14.0377 12.0723H15.2222C15.2815 12.0723 15.3407 12.0723 15.3407 12.1315C15.6961 13.0792 17.1176 13.4346 17.8876 12.783C18.2429 12.4869 18.3022 12.0723 18.0653 11.6577C17.6506 11.0061 16.8214 10.8285 16.1699 10.71C15.5776 10.5915 14.9853 10.4731 14.5707 10.0585C14.1561 9.64387 13.9192 9.05158 13.9784 8.51852C14.0377 7.92622 14.3338 7.39316 14.8076 7.03778C15.2222 6.74164 15.6961 6.50472 16.1699 6.38626C16.2291 6.38626 16.2884 6.38626 16.2884 6.32703C16.2884 6.2678 16.2884 6.20857 16.2884 6.14934V5.8532C16.2884 5.67551 16.4068 5.55705 16.5845 5.55705H16.9991C17.1768 5.55705 17.2953 5.67551 17.2953 5.8532V6.32703H17.4137C18.1837 6.44549 18.8945 6.80087 19.4275 7.39316C19.6052 7.63008 19.8421 7.92622 19.9606 8.22237C20.0791 8.40006 19.9606 8.45929 19.9014 8.45929Z" fill="#536374"/>
</svg>
