<svg width="30" height="30" viewBox="0 0 30 30" fill="none" xmlns="http://www.w3.org/2000/svg">
<path d="M29 30H1C0.734784 30 0.48043 29.8946 0.292893 29.7071C0.105357 29.5196 0 29.2652 0 29V5C0 4.73478 0.105357 4.48043 0.292893 4.29289C0.48043 4.10536 0.734784 4 1 4H29C29.2652 4 29.5196 4.10536 29.7071 4.29289C29.8946 4.48043 30 4.73478 30 5V29C30 29.2652 29.8946 29.5196 29.7071 29.7071C29.5196 29.8946 29.2652 30 29 30ZM2 28H28V6H2V28Z" fill="#536374"/>
<path d="M29 12H1C0.734784 12 0.48043 11.8946 0.292893 11.7071C0.105357 11.5196 0 11.2652 0 11C0 10.7348 0.105357 10.4804 0.292893 10.2929C0.48043 10.1054 0.734784 10 1 10H29C29.2652 10 29.5196 10.1054 29.7071 10.2929C29.8946 10.4804 30 10.7348 30 11C30 11.2652 29.8946 11.5196 29.7071 11.7071C29.5196 11.8946 29.2652 12 29 12Z" fill="#536374"/>
<path d="M7 8C6.73478 8 6.48043 7.89464 6.29289 7.70711C6.10536 7.51957 6 7.26522 6 7V1C6 0.734784 6.10536 0.48043 6.29289 0.292893C6.48043 0.105357 6.73478 0 7 0C7.26522 0 7.51957 0.105357 7.70711 0.292893C7.89464 0.48043 8 0.734784 8 1V7C8 7.26522 7.89464 7.51957 7.70711 7.70711C7.51957 7.89464 7.26522 8 7 8Z" fill="#536374"/>
<path d="M15 8C14.7348 8 14.4804 7.89464 14.2929 7.70711C14.1054 7.51957 14 7.26522 14 7V1C14 0.734784 14.1054 0.48043 14.2929 0.292893C14.4804 0.105357 14.7348 0 15 0C15.2652 0 15.5196 0.105357 15.7071 0.292893C15.8946 0.48043 16 0.734784 16 1V7C16 7.26522 15.8946 7.51957 15.7071 7.70711C15.5196 7.89464 15.2652 8 15 8Z" fill="#536374"/>
<path d="M23 8C22.7348 8 22.4804 7.89464 22.2929 7.70711C22.1054 7.51957 22 7.26522 22 7V1C22 0.734784 22.1054 0.48043 22.2929 0.292893C22.4804 0.105357 22.7348 0 23 0C23.2652 0 23.5196 0.105357 23.7071 0.292893C23.8946 0.48043 24 0.734784 24 1V7C24 7.26522 23.8946 7.51957 23.7071 7.70711C23.5196 7.89464 23.2652 8 23 8Z" fill="#536374"/>
<path d="M7 13H5C4.44772 13 4 13.4477 4 14V16C4 16.5523 4.44772 17 5 17H7C7.55228 17 8 16.5523 8 16V14C8 13.4477 7.55228 13 7 13Z" fill="#536374"/>
<path d="M13 13H11C10.4477 13 10 13.4477 10 14V16C10 16.5523 10.4477 17 11 17H13C13.5523 17 14 16.5523 14 16V14C14 13.4477 13.5523 13 13 13Z" fill="#536374"/>
<path d="M19 13H17C16.4477 13 16 13.4477 16 14V16C16 16.5523 16.4477 17 17 17H19C19.5523 17 20 16.5523 20 16V14C20 13.4477 19.5523 13 19 13Z" fill="#536374"/>
<path d="M25 13H23C22.4477 13 22 13.4477 22 14V16C22 16.5523 22.4477 17 23 17H25C25.5523 17 26 16.5523 26 16V14C26 13.4477 25.5523 13 25 13Z" fill="#536374"/>
<path d="M7 18H5C4.44772 18 4 18.4477 4 19V21C4 21.5523 4.44772 22 5 22H7C7.55228 22 8 21.5523 8 21V19C8 18.4477 7.55228 18 7 18Z" fill="#536374"/>
<path d="M13 18H11C10.4477 18 10 18.4477 10 19V21C10 21.5523 10.4477 22 11 22H13C13.5523 22 14 21.5523 14 21V19C14 18.4477 13.5523 18 13 18Z" fill="#536374"/>
<path d="M19 18H17C16.4477 18 16 18.4477 16 19V21C16 21.5523 16.4477 22 17 22H19C19.5523 22 20 21.5523 20 21V19C20 18.4477 19.5523 18 19 18Z" fill="#536374"/>
<path d="M25 18H23C22.4477 18 22 18.4477 22 19V21C22 21.5523 22.4477 22 23 22H25C25.5523 22 26 21.5523 26 21V19C26 18.4477 25.5523 18 25 18Z" fill="#536374"/>
<path d="M7 23H5C4.44772 23 4 23.4477 4 24V26C4 26.5523 4.44772 27 5 27H7C7.55228 27 8 26.5523 8 26V24C8 23.4477 7.55228 23 7 23Z" fill="#536374"/>
<path d="M13 23H11C10.4477 23 10 23.4477 10 24V26C10 26.5523 10.4477 27 11 27H13C13.5523 27 14 26.5523 14 26V24C14 23.4477 13.5523 23 13 23Z" fill="#536374"/>
<path d="M19 23H17C16.4477 23 16 23.4477 16 24V26C16 26.5523 16.4477 27 17 27H19C19.5523 27 20 26.5523 20 26V24C20 23.4477 19.5523 23 19 23Z" fill="#536374"/>
<path d="M25 23H23C22.4477 23 22 23.4477 22 24V26C22 26.5523 22.4477 27 23 27H25C25.5523 27 26 26.5523 26 26V24C26 23.4477 25.5523 23 25 23Z" fill="#536374"/>
</svg>
