<svg width="38" height="38" viewBox="0 0 38 38" fill="none" xmlns="http://www.w3.org/2000/svg">
<path d="M24.3199 9.1195C24.3199 6.18606 21.9333 3.79956 19.0001 3.79956C16.0667 3.79956 13.6802 6.18614 13.6802 9.1195C13.6802 12.0529 16.0667 14.4394 19.0001 14.4394C21.9333 14.4394 24.3199 12.0529 24.3199 9.1195ZM15.2002 9.1195C15.2002 7.02403 16.9046 5.31954 19.0001 5.31954C21.0954 5.31954 22.7999 7.02403 22.7999 9.1195C22.7999 11.2145 21.0954 12.9195 19.0001 12.9195C16.9046 12.9195 15.2002 11.2145 15.2002 9.1195Z" fill="black"/>
<path d="M37.8781 36.8265L29.5181 23.9063C29.3781 23.6903 29.138 23.5596 28.8803 23.5596H24.0964C26.7666 17.1795 28.1203 12.3243 28.1203 9.1199C28.1203 4.09106 24.0289 0 19.0006 0C13.9717 0 9.88069 4.09106 9.88069 9.1199C9.88069 12.3243 11.2344 17.1798 13.9046 23.5596H7.60079C7.31938 23.5596 7.06101 23.7155 6.92914 23.9643L0.089139 36.8836C-0.178554 37.3893 0.18903 37.999 0.760794 37.999H37.2399C37.5184 37.999 37.7746 37.8468 37.9079 37.6025C38.0408 37.3581 38.0292 37.0604 37.8781 36.8265ZM19.0006 1.51991C23.1909 1.51991 26.6004 4.92925 26.6004 9.11982C26.6004 14.8957 21.5856 25.8413 19.0013 31.0035C19.0013 31.0043 19.001 31.005 19.0006 31.0057C16.4124 25.8331 11.4007 14.9002 11.4007 9.11982C11.4007 4.92925 14.8101 1.51991 19.0006 1.51991ZM2.02315 36.479L8.0585 25.0794H14.5524C15.821 27.9976 17.3874 31.2418 18.3278 33.0336C18.4592 33.2831 18.7184 33.439 19.0005 33.439C19.2827 33.439 19.5413 33.283 19.6731 33.0336C20.9403 30.6047 22.4261 27.4362 23.4485 25.0794H28.4666L35.843 36.479H2.02315Z" fill="black"/>
</svg>
