<svg width="20" height="15" viewBox="0 0 20 15" fill="none" xmlns="http://www.w3.org/2000/svg">
<path d="M6.8 0.519135C13.7 -1.68087 20 3.41914 20 10.0191C20 10.9191 19.9 12.6191 19.6 13.6191C19.6 13.8191 19.4 14.0191 19.2 14.0191H0.9C0.700001 14.0191 0.5 13.8191 0.4 13.6191C0.199999 12.6191 0 10.9191 0 10.0191C0 5.71914 2.7 1.81914 6.8 0.519135ZM10 2.01913C9.4 2.01913 9 2.41914 9 3.01914C9 3.61914 9.4 4.01914 10 4.01914C10.6 4.01914 11 3.61914 11 3.01914C11 2.41914 10.6 2.01913 10 2.01913ZM17 11.0191C17.6 11.0191 18 10.6191 18 10.0191C18 9.41914 17.6 9.01914 17 9.01914C16.4 9.01914 16 9.41914 16 10.0191C16 10.6191 16.4 11.0191 17 11.0191ZM14.2 5.81914C14.6 6.21914 15.2 6.21914 15.6 5.81914C16 5.41914 16 4.71914 15.7 4.31914C15.3 3.91914 14.7 3.91914 14.3 4.31914C13.9 4.71914 13.9 5.41914 14.2 5.81914ZM10 12.0191C11.1 12.0191 12.1 11.0191 11.8 10.0191C11.5 9.01914 10 6.01914 10 6.01914C10 6.01914 8.5 9.01914 8.2 10.0191C7.9 11.0191 8.9 12.0191 10 12.0191ZM4.3 5.81914C4.7 6.21914 5.3 6.21914 5.7 5.81914C6.1 5.41914 6.1 4.81914 5.7 4.41914C5.3 4.01914 4.7 4.01914 4.3 4.41914C4 4.71914 4 5.41914 4.3 5.81914ZM3 11.0191C3.6 11.0191 4 10.6191 4 10.0191C4 9.41914 3.6 9.01914 3 9.01914C2.4 9.01914 2 9.41914 2 10.0191C2 10.6191 2.4 11.0191 3 11.0191Z" fill="white"/>
</svg>
