<svg width="46" height="40" viewBox="0 0 46 40" fill="none" xmlns="http://www.w3.org/2000/svg">
<path d="M22 0C10.9375 0 2 8.9375 2 20C2 31.0625 10.9375 40 22 40C33.0625 40 42 31.0625 42 20C42 8.9375 33.0625 0 22 0ZM22 37.5C12.375 37.5 4.5 29.625 4.5 20C4.5 10.375 12.375 2.5 22 2.5C31.625 2.5 39.5 10.375 39.5 20C39.5 29.625 31.625 37.5 22 37.5Z" fill="black"/>
<path d="M22.375 7.50003C20.3125 7.37503 18.3125 8.12503 16.8125 9.56253C15.3125 11 14.5 12.9375 14.5 15H17C17 13.625 17.5625 12.3125 18.5625 11.375C19.5625 10.4375 20.875 9.93753 22.25 10C24.75 10.125 26.8125 12.1875 27 14.75C27.125 16.75 26 18.625 24.1875 19.5C22.0625 20.5625 20.75 22.625 20.75 24.875V25H23.25V24.875C23.25 23.5625 24.0625 22.375 25.3125 21.75C28 20.4375 29.6875 17.625 29.5 14.625C29.3125 10.8125 26.1875 7.68753 22.375 7.50003Z" fill="black"/>
<path d="M23.25 30H20.75V32.5H23.25V30Z" fill="black"/>
</svg>
