<svg width="23" height="16" viewBox="0 0 23 16" fill="none" xmlns="http://www.w3.org/2000/svg">
<path d="M4.20545 5.22324C5.4901 5.22324 6.53477 4.17857 6.53477 2.89426C6.53477 1.60961 5.4901 0.564941 4.20545 0.564941C2.92114 0.564941 1.87646 1.60961 1.87646 2.89426C1.87646 4.1789 2.92146 5.22324 4.20545 5.22324Z" fill="white"/>
<path d="M11.3997 5.22324C12.6843 5.22324 13.7286 4.17857 13.7286 2.89426C13.7286 1.60961 12.6843 0.564941 11.3997 0.564941C10.1153 0.564941 9.07034 1.60961 9.07034 2.89426C9.07034 4.1789 10.1153 5.22324 11.3997 5.22324Z" fill="white"/>
<path d="M18.5942 5.22324C19.8788 5.22324 20.9232 4.17857 20.9232 2.89426C20.9232 1.60961 19.8788 0.564941 18.5942 0.564941C17.3095 0.564941 16.2649 1.60961 16.2649 2.89426C16.2645 4.1789 17.3095 5.22324 18.5942 5.22324Z" fill="white"/>
<path d="M21.3952 13.9028H15.7928H14.2014H8.59824H7.00782H1.4047H0.399963V15.2903H22.4V13.9028H21.3952Z" fill="white"/>
<path d="M14.2013 8.55065C14.2013 7.0866 13.0097 5.89526 11.545 5.89526H11.2549C9.79021 5.89526 8.59854 7.0866 8.59854 8.55065V11.4352H14.2013V8.55065Z" fill="white"/>
<path d="M21.6024 8.65539C21.6024 7.19134 20.411 6 18.9463 6H18.6563C17.1916 6 15.9999 7.19134 15.9999 8.65539V11.5399H21.6024V8.65539Z" fill="white"/>
<path d="M7.00788 8.55065C7.00788 7.0866 5.81556 5.89526 4.35118 5.89526H4.06112C2.59609 5.89526 1.40475 7.0866 1.40475 8.55065V11.4352H7.00788V8.55065Z" fill="white"/>
</svg>
