<svg width="16" height="21" viewBox="0 0 16 21" fill="none" xmlns="http://www.w3.org/2000/svg">
<path fill-rule="evenodd" clip-rule="evenodd" d="M8.00736 0C3.59548 0 0 3.53827 0 7.88971C0 10.1437 1.36849 12.6661 2.97795 14.9706C4.26252 16.8099 5.69553 18.4628 6.82353 19.6618H1.24266C1.10382 19.6618 0.97067 19.7168 0.872498 19.8147C0.774325 19.9126 0.719171 20.0454 0.719171 20.1838C0.719171 20.3223 0.774325 20.4551 0.872498 20.553C0.97067 20.6509 1.10382 20.7059 1.24266 20.7059H14.7721C14.9109 20.7059 15.0441 20.6509 15.1422 20.553C15.2404 20.4551 15.2956 20.3223 15.2956 20.1838C15.2956 20.0454 15.2404 19.9126 15.1422 19.8147C15.0441 19.7168 14.9109 19.6618 14.7721 19.6618H9.19118C10.5179 18.2698 12.0266 16.5572 13.2868 14.7206C14.813 12.4962 16 10.115 16 7.88971C16 3.53827 12.4106 0 8.00736 0ZM8.00736 4.16912C10.0828 4.16912 11.7573 5.83465 11.7573 7.90441C11.7573 9.97417 10.0828 11.6471 8.00736 11.6471C5.92158 11.6471 4.25 9.97417 4.25 7.90441C4.25 5.83465 5.92158 4.16912 8.00736 4.16912Z" fill="#536374"/>
</svg>
