<svg width="14" height="14" viewBox="0 0 14 14" fill="none" xmlns="http://www.w3.org/2000/svg">
<path d="M13.3532 0.155273H9.25417C8.89695 0.155273 8.60742 0.444805 8.60742 0.802031C8.60742 1.15926 8.89695 1.44879 9.25417 1.44879H11.7918L5.59008 7.65047C5.33749 7.90307 5.33749 8.31254 5.59008 8.56513C5.71641 8.69139 5.88191 8.75456 6.04741 8.75456C6.21291 8.75456 6.37841 8.69139 6.50474 8.56513L12.7064 2.36345V4.90111C12.7064 5.25833 12.9959 5.54787 13.3532 5.54787C13.7104 5.54787 13.9999 5.25833 13.9999 4.90111V0.802103C13.9999 0.444805 13.7104 0.155273 13.3532 0.155273Z" fill="#C4FDFD"/>
<path d="M10.7074 5.54777C10.3502 5.54777 10.0607 5.8373 10.0607 6.19453V12.5512H1.29352V3.78399H8.03259C8.38981 3.78399 8.67934 3.49446 8.67934 3.13724C8.67934 2.78001 8.38981 2.49048 8.03259 2.49048H0.646758C0.289532 2.49048 0 2.78001 0 3.13724V13.1979C0 13.5551 0.289532 13.8447 0.646758 13.8447H10.7074C11.0647 13.8447 11.3542 13.5551 11.3542 13.1979V6.19453C11.3542 5.8373 11.0647 5.54777 10.7074 5.54777Z" fill="#C4FDFD"/>
</svg>
