<svg width="47" height="23" viewBox="0 0 47 23" fill="none" xmlns="http://www.w3.org/2000/svg">
<path d="M44.9434 0H16.9369C15.7876 0 14.8803 0.907893 14.8803 2.05789V20.9421C14.8803 22.0921 15.7876 23 16.9369 23H44.9434C46.0927 23 47 22.0921 47 20.9421V2.05789C47 0.907893 46.0927 0 44.9434 0ZM41.9189 2.42105L30.9099 9.98684L19.6589 2.42105H41.9189ZM17.2999 20.5184V3.75263L30.2445 12.4684C30.426 12.5895 30.668 12.65 30.9099 12.65C31.1519 12.65 31.3938 12.5895 31.5753 12.4079L44.52 3.45V20.4579H17.2999V20.5184ZM12.7632 5.08421C12.7632 5.75 12.2188 6.29474 11.5534 6.29474H1.20978C0.544402 6.29474 0 5.75 0 5.08421C0 4.41842 0.544402 3.87368 1.20978 3.87368H11.5534C12.2188 3.87368 12.7632 4.41842 12.7632 5.08421ZM12.7632 11.5C12.7632 12.1658 12.2188 12.7105 11.5534 12.7105H3.56885C2.90347 12.7105 2.35907 12.1658 2.35907 11.5C2.35907 10.8342 2.90347 10.2895 3.56885 10.2895H11.5534C12.2188 10.2895 12.7632 10.8342 12.7632 11.5ZM12.7632 17.9158C12.7632 18.5816 12.2188 19.1263 11.5534 19.1263H5.08108C4.4157 19.1263 3.8713 18.5816 3.8713 17.9158C3.8713 17.25 4.4157 16.7053 5.08108 16.7053H11.5534C12.2188 16.7053 12.7632 17.25 12.7632 17.9158Z" fill="black"/>
</svg>
