<svg width="19" height="22" viewBox="0 0 19 22" fill="none" xmlns="http://www.w3.org/2000/svg">
<path d="M13.8787 18.7297V21.9999L18.6354 17.2432H15.3651C14.5455 17.2432 13.8787 17.91 13.8787 18.7297Z" fill="#53565D"/>
<path d="M0.5 0V19.027C0.5 20.6622 1.83784 22 3.47297 22H12.3919V18.7297C12.3919 17.0946 13.7297 15.7568 15.3649 15.7568H18.6351V0H0.5ZM5.4393 13.5526L3.62162 12.1892L3.02703 11.7432L3.91892 10.5541L5.07422 11.4204L6.83451 8.78008L8.07127 9.60449L5.4393 13.5526ZM5.4393 8.20124L3.62162 6.83784L3.02703 6.39189L3.91892 5.2027L5.07422 6.06903L6.83451 3.42873L8.07127 4.25314L5.4393 8.20124ZM15.0676 12.0405H9.71622V10.5541H15.0676V12.0405ZM15.0676 6.68919H9.71622V5.2027H15.0676V6.68919Z" fill="#53565D"/>
</svg>
