<svg width="20" height="20" viewBox="0 0 20 20" fill="none" xmlns="http://www.w3.org/2000/svg">
<g clip-path="url(#clip0)">
<path d="M13.5324 6.46702C13.2496 6.18418 12.8727 6.0285 12.4712 6.02881C11.6576 6.02928 10.9713 6.68154 10.9716 7.52792C10.9717 7.92948 11.1274 8.30644 11.4102 8.58912C11.9954 9.1743 12.9465 9.17512 13.5305 8.59111C14.1166 8.00496 14.1175 7.05212 13.5324 6.46702Z" fill="#53565D"/>
<path d="M20 0.00341797L19.4139 0.0039649C15.2205 0.00794971 11.112 1.77294 8.14054 4.8471L2.31641 10.6712L9.32841 17.6831L15.1522 11.8594C16.6175 10.447 17.8319 8.70545 18.6644 6.82274C20.2422 3.25416 19.9657 0.369785 20 0.00341797ZM10.583 9.41658C9.54046 8.37397 9.54073 6.68195 10.581 5.64176C11.6239 4.59883 13.316 4.59618 14.3597 5.63984C15.4009 6.68105 15.4001 8.37627 14.3579 9.41857C13.3177 10.4586 11.6244 10.4577 10.583 9.41658Z" fill="#53565D"/>
<path d="M0.0247803 19.1436L3.06943 16.0989L3.89663 16.9261L0.851977 19.9708L0.0247803 19.1436Z" fill="#53565D"/>
<path d="M3.66211 18.8604L4.7528 17.7697L5.57997 18.5968L4.48928 19.6875L3.66211 18.8604Z" fill="#53565D"/>
<path d="M0.308105 15.5068L1.39225 14.4227L2.21936 15.2498L1.13522 16.3339L0.308105 15.5068Z" fill="#53565D"/>
<path d="M15.2217 14.043L14.9224 13.7437L10.1556 18.5105L11.6415 19.9964L14.2826 17.3553L15.2217 14.043Z" fill="#53565D"/>
<path d="M2.6413 5.7136L0 8.35493L1.48903 9.84408L6.25591 5.07716L5.95658 4.77783L2.6413 5.7136Z" fill="#53565D"/>
<path d="M1.36182 13.0494L6.94984 18.6375L8.09508 18.1042L1.89504 11.9043L1.36182 13.0494Z" fill="#53565D"/>
</g>
<defs>
<clipPath id="clip0">
<rect width="20" height="20" fill="white"/>
</clipPath>
</defs>
</svg>
