<svg width="16" height="16" viewBox="0 0 16 16" fill="none" xmlns="http://www.w3.org/2000/svg">
<path fill-rule="evenodd" clip-rule="evenodd" d="M8 0C7.44772 0 7 0.447715 7 1V7.00003H0.999878C0.447593 7.00003 -0.00012207 7.44775 -0.00012207 8.00003C-0.00012207 8.55232 0.447593 9.00003 0.999878 9.00003H7V15C7 15.5523 7.44772 16 8 16C8.55229 16 9 15.5523 9 15V9.00003H14.9999C15.5522 9.00003 15.9999 8.55232 15.9999 8.00003C15.9999 7.44775 15.5522 7.00003 14.9999 7.00003H9V1C9 0.447715 8.55229 0 8 0Z" fill="white"/>
</svg>
