<svg width="20" height="20" viewBox="0 0 20 20" fill="none" xmlns="http://www.w3.org/2000/svg">
<g clip-path="url(#clip0)">
<path d="M12.5 5.4165C12.04 5.4165 11.6666 5.04317 11.6666 4.58317V3.33317H8.3333V4.58317C8.3333 5.04317 7.95996 5.4165 7.49996 5.4165C7.03996 5.4165 6.66663 5.04317 6.66663 4.58317V3.33317C6.66663 2.414 7.41413 1.6665 8.3333 1.6665H11.6666C12.5858 1.6665 13.3333 2.414 13.3333 3.33317V4.58317C13.3333 5.04317 12.96 5.4165 12.5 5.4165Z" fill="#53565D"/>
<path d="M15 10.4165V11.1832C15 11.5248 14.7167 11.8082 14.375 11.8082C14.0333 11.8082 13.75 11.5248 13.75 11.1832V10.4165H6.25V11.1832C6.25 11.5248 5.96667 11.8082 5.625 11.8082C5.28333 11.8082 5 11.5248 5 11.1832V10.4165H0V16.0415C0 17.3082 1.025 18.3332 2.29167 18.3332H17.7083C18.975 18.3332 20 17.3082 20 16.0415V10.4165H15ZM17.7083 4.1665H2.29167C1.025 4.1665 0 5.1915 0 6.45817V9.1665H5V8.12484C5 7.78317 5.28333 7.49984 5.625 7.49984C5.96667 7.49984 6.25 7.78317 6.25 8.12484V9.1665H13.75V8.12484C13.75 7.78317 14.0333 7.49984 14.375 7.49984C14.7167 7.49984 15 7.78317 15 8.12484V9.1665H20V6.45817C20 5.1915 18.975 4.1665 17.7083 4.1665Z" fill="#53565D"/>
</g>
<defs>
<clipPath id="clip0">
<rect width="20" height="20" fill="white"/>
</clipPath>
</defs>
</svg>
