<svg width="38" height="46" viewBox="0 0 38 46" fill="none" xmlns="http://www.w3.org/2000/svg">
<path d="M33.25 15.2H28.5V9.5C28.5 4.2617 24.2383 0 19 0C13.7617 0 9.5 4.2617 9.5 9.5V15.2H4.75C2.1299 15.2 0 17.3318 0 19.95V40.85C0 43.4682 2.1299 45.6 4.75 45.6H33.25C35.8701 45.6 38 43.4682 38 40.85V19.95C38 17.3318 35.8701 15.2 33.25 15.2ZM11.4 9.5C11.4 5.3086 14.8086 1.9 19 1.9C23.1914 1.9 26.6 5.3086 26.6 9.5V15.2H11.4V9.5ZM36.1 40.85C36.1 42.4213 34.8213 43.7 33.25 43.7H4.75C3.1787 43.7 1.9 42.4213 1.9 40.85V19.95C1.9 18.3787 3.1787 17.1 4.75 17.1H33.25C34.8213 17.1 36.1 18.3787 36.1 19.95V40.85Z" fill="black"/>
<path d="M19 24.7C15.8574 24.7 13.3 27.2574 13.3 30.4C13.3 33.5426 15.8574 36.1 19 36.1C22.1426 36.1 24.7 33.5426 24.7 30.4C24.7 27.2574 22.1426 24.7 19 24.7ZM19 34.2C16.9043 34.2 15.2 32.4976 15.2 30.4C15.2 28.3024 16.9043 26.6 19 26.6C21.0976 26.6 22.8 28.3024 22.8 30.4C22.8 32.4976 21.0976 34.2 19 34.2Z" fill="black"/>
</svg>
