<svg width="24" height="16" viewBox="0 0 24 16" fill="none" xmlns="http://www.w3.org/2000/svg">
<path d="M22.921 0.777025C22.5956 0.254488 21.9912 -0.04086 21.3635 0.00457804H19.4108C13.5759 0.00457804 7.74108 0.00457804 1.90621 0.00457804C1.23206 0.00457804 0.674148 0.209049 0.302204 0.777025C0.185972 1.00422 0.092986 1.23141 0 1.48132V14.522C0.0697395 14.7719 0.185972 14.9991 0.302204 15.2263C0.627655 15.7262 1.20882 16.0215 1.81323 15.9988H2.06894C8.46172 15.9988 14.8778 15.9988 21.2705 15.9988C21.9447 15.9988 22.5258 15.7943 22.8978 15.2263C23.014 14.9991 23.107 14.7719 23.2 14.522V1.48132C23.1303 1.23141 23.0373 1.00422 22.921 0.777025ZM10.4842 1.23141C11.2978 1.23141 12.0882 1.23141 12.9018 1.23141C12.9715 1.23141 13.018 1.27684 13.0413 1.32228C13.0413 1.8221 13.0413 2.32192 13.0413 2.84446H10.3214C10.3214 2.61727 10.3214 2.39008 10.3214 2.16289C10.3214 1.9357 10.3214 1.64035 10.3214 1.39044C10.2982 1.32228 10.3447 1.25413 10.4144 1.23141C10.4377 1.23141 10.4609 1.23141 10.4842 1.23141ZM3.88216 14.772C3.83567 14.772 3.76593 14.7947 3.71944 14.7947C2.9523 14.7947 2.18517 14.7947 1.39479 14.7947C1.25531 14.7947 1.18557 14.772 1.18557 14.6129C1.18557 14.1358 1.18557 13.6814 1.18557 13.1816H3.88216V14.772ZM3.97515 2.73086C3.9519 2.79902 3.92866 2.84446 3.85892 2.86718C3.02204 2.86718 2.18517 2.86718 1.3483 2.86718C1.32505 2.86718 1.27856 2.86718 1.25531 2.84446C1.25531 2.34464 1.25531 1.8221 1.25531 1.32228C1.27856 1.27684 1.32505 1.23141 1.37154 1.23141C2.18517 1.23141 2.9988 1.23141 3.81242 1.23141C3.88216 1.20869 3.92866 1.25412 3.9519 1.32228C3.9519 1.345 3.9519 1.36772 3.9519 1.36772C3.97515 1.8221 3.97515 2.27648 3.97515 2.73086ZM8.41523 14.772C8.34549 14.772 8.299 14.7947 8.2525 14.7947C7.48537 14.7947 6.69499 14.7947 5.92785 14.7947C5.83487 14.8174 5.76513 14.772 5.71864 14.6811C5.71864 14.6584 5.71864 14.6129 5.71864 14.5902C5.71864 14.1131 5.71864 13.6587 5.71864 13.1589H8.41523V14.772ZM8.50821 2.70814C8.53146 2.7763 8.48497 2.86718 8.41523 2.8899C8.39198 2.8899 8.36874 2.8899 8.34549 2.8899C7.55511 2.8899 6.74148 2.8899 5.9511 2.8899C5.88136 2.8899 5.83487 2.84446 5.78838 2.79902C5.78838 2.2992 5.78838 1.79938 5.78838 1.27684C5.88136 1.27684 5.92785 1.27684 5.97435 1.27684C6.76473 1.27684 7.53186 1.27684 8.299 1.27684C8.39198 1.25412 8.46172 1.29956 8.50821 1.39044C8.50821 1.41316 8.50821 1.4586 8.50821 1.48132C8.50821 1.84482 8.50821 2.27648 8.50821 2.70814ZM12.9483 14.772C12.8786 14.772 12.8321 14.7947 12.7623 14.7947C11.9952 14.7947 11.2048 14.7947 10.4377 14.7947C10.2982 14.7947 10.2517 14.772 10.2517 14.6129C10.2517 14.1813 10.2517 13.7496 10.2517 13.3179C10.2517 13.2725 10.2517 13.2271 10.2749 13.1589H12.9483V14.772ZM13.2273 8.61509L10.5539 10.2281C10.0192 10.5689 9.57755 10.319 9.57755 9.70561V6.29775C9.57755 5.66162 10.0192 5.43443 10.5539 5.77521L13.2273 7.38826C13.7619 7.72905 13.7619 8.27431 13.2273 8.61509ZM17.4814 14.7038C17.4581 14.7492 17.4116 14.7947 17.3651 14.7947C16.5515 14.7947 15.7146 14.7947 14.901 14.7947C14.8545 14.7947 14.808 14.7492 14.7848 14.7038C14.7848 14.204 14.7848 13.7042 14.7848 13.1816H17.4814C17.4814 13.7042 17.4814 14.204 17.4814 14.7038ZM17.5743 2.70814C17.5743 2.79902 17.5743 2.86718 17.4581 2.86718H14.901V1.23141H16.1098C16.5515 1.23141 16.9932 1.23141 17.4349 1.23141C17.5046 1.20869 17.5743 1.25412 17.5976 1.32228C17.5976 1.345 17.5976 1.36772 17.5976 1.39044C17.5511 1.84482 17.5743 2.27648 17.5743 2.70814ZM22.0144 14.772H19.3178V13.1816H21.9912V14.772H22.0144ZM22.1074 2.73086C22.1074 2.82174 22.0842 2.8899 21.9679 2.8899C21.1543 2.8899 20.3174 2.8899 19.5038 2.8899C19.4806 2.8899 19.4341 2.8899 19.4108 2.86718V1.25412C19.4806 1.25412 19.5503 1.25412 19.5968 1.25412C20.3639 1.25412 21.1543 1.25412 21.9214 1.25412C22.0144 1.23141 22.0842 1.27684 22.1307 1.36772C22.1307 1.39044 22.1307 1.43588 22.1307 1.4586C22.0842 1.86754 22.1074 2.2992 22.1074 2.73086Z" fill="#526374"/>
</svg>
