<svg width="22" height="17" viewBox="0 0 22 17" fill="none" xmlns="http://www.w3.org/2000/svg">
<path d="M9.4566 0.623736C11.5907 -0.278684 14.0528 0.719014 14.9555 2.8531H20.5706C21.0352 2.8531 21.4121 3.22999 21.4121 3.69401V7.61546C21.3886 7.6236 21.3663 7.63264 21.3427 7.64078C19.9422 8.15486 18.4932 8.52692 17.0173 8.75094C15.0556 9.04944 13.0747 9.19839 11.0914 9.19839C9.10775 9.19839 7.12713 9.04944 5.16611 8.75094C3.69022 8.52722 2.24116 8.15486 0.83974 7.64078C0.817127 7.63264 0.793911 7.6236 0.770996 7.61546V3.69401C0.770996 3.22999 1.14758 2.8531 1.61191 2.8531H7.22693C7.65236 1.84847 8.45257 1.04917 9.4566 0.623736ZM7.91739 2.8531H14.2651C13.363 1.09982 11.2099 0.41087 9.4563 1.31329C8.79569 1.6543 8.2581 2.19249 7.91739 2.8531ZM12.2917 7.81988C12.2917 7.7433 12.2652 7.66973 12.2175 7.61093C12.1415 7.51686 12.0475 7.43968 11.9395 7.3854C11.8247 7.32601 11.7022 7.28229 11.5762 7.25515C11.4167 7.22108 11.2542 7.2045 11.0911 7.2045C10.928 7.2045 10.7655 7.22108 10.6066 7.25515C10.4799 7.28229 10.3575 7.32571 10.2426 7.3854C10.135 7.43968 10.0412 7.51686 9.96495 7.61093C9.91701 7.66973 9.89078 7.7433 9.89078 7.81988C9.89078 7.89707 9.91701 7.97003 9.96495 8.03003C10.0412 8.1238 10.135 8.20069 10.2426 8.25556C10.3575 8.31436 10.4799 8.35808 10.6066 8.38521C10.7655 8.41868 10.928 8.43587 11.0911 8.43587C11.2542 8.43587 11.4167 8.41868 11.5762 8.38521C11.7022 8.35808 11.8247 8.31466 11.9395 8.25556C12.0472 8.20069 12.1415 8.1235 12.2175 8.03003C12.2655 7.97003 12.2917 7.89707 12.2917 7.81988Z" fill="#526374"/>
<path d="M0.770996 9.28027C2.16608 9.78199 3.6061 10.1459 5.07174 10.3684C7.06382 10.6717 9.0764 10.8237 11.0911 10.8237C13.1064 10.8237 15.1184 10.6717 17.1113 10.3684C18.577 10.1459 20.0164 9.78199 21.4121 9.28027V16.159C21.4121 16.6231 21.0352 16.9999 20.5706 16.9999H1.61191C1.14758 16.9999 0.770996 16.6231 0.770996 16.159V9.28027Z" fill="#526374"/>
</svg>
