<svg width="13" height="13" viewBox="0 0 13 13" fill="none" xmlns="http://www.w3.org/2000/svg">
<path d="M5.55988 1.8522C7.59735 1.8522 9.27223 3.51398 9.27223 5.5739C9.27223 6.35286 9.03049 7.07989 8.58156 7.72037L8.21896 8.23968L7.70095 8.6032C7.06209 9.05326 6.33688 9.29561 5.55988 9.29561C3.52241 9.29561 1.84754 7.63382 1.84754 5.5739C1.84754 3.51398 3.52241 1.8522 5.55988 1.8522ZM5.55988 0C2.48641 0 0 2.49268 0 5.5739C0 8.65513 2.48641 11.1478 5.55988 11.1478C6.75129 11.1478 7.85636 10.767 8.77149 10.1092L11.3788 12.723C11.5514 12.8961 11.7932 13 12.0349 13C12.2766 13 12.5184 12.9134 12.691 12.723L12.7083 12.7057C13.0709 12.3422 13.1227 11.7364 12.7083 11.3901L10.101 8.79361C10.7399 7.87616 11.137 6.76831 11.137 5.5739C11.1198 2.49268 8.63336 0 5.55988 0Z" fill="#1F2125"/>
</svg>
