<svg width="36" height="44" viewBox="0 0 36 44" fill="none" xmlns="http://www.w3.org/2000/svg">
<path d="M30.8109 33.9667C31.1058 33.9667 31.4006 33.9795 31.6954 33.9496C32.379 33.8813 33.0114 33.7146 33.6138 33.3813C34.6906 32.7874 35.5195 31.7193 35.8314 30.5314C36.0707 29.6171 35.9852 28.6045 35.9852 27.6687C35.9852 26.2801 35.9852 24.8957 35.9852 23.5071C35.9852 22.5628 35.9852 21.6186 35.9852 20.6743C35.9852 19.8027 35.7673 18.9268 35.3016 18.1833C34.6521 17.1493 33.5882 16.346 32.3833 16.0939C31.4775 15.9059 30.358 15.8974 29.4736 16.1794C28.3071 16.5511 27.2518 17.3843 26.7091 18.4995C26.363 19.2087 26.2007 19.9437 26.2007 20.7341C26.2007 21.1101 26.2007 21.4904 26.2007 21.8664C26.2007 23.2166 26.2007 24.571 26.2007 25.9212C26.2007 26.9894 26.2007 28.0533 26.2007 29.1215C26.2007 29.7154 26.252 30.3178 26.4656 30.8775C26.9057 32.0226 27.7303 33.0267 28.8711 33.5223C29.4907 33.8001 30.123 33.9582 30.8109 33.9667C31.4818 33.971 32.1227 33.3728 32.0928 32.6849C32.0629 31.9842 31.5288 31.4074 30.8109 31.4031C30.6529 31.4031 30.499 31.3903 30.3409 31.3689C30.4563 31.386 30.5674 31.3988 30.6828 31.4159C30.3965 31.3732 30.123 31.2963 29.8581 31.1852C29.9607 31.2279 30.0632 31.2706 30.1658 31.3134C29.9778 31.2322 29.794 31.1339 29.6231 31.0228C29.6146 31.0185 29.4864 30.9374 29.4864 30.9245C29.4864 30.9288 29.7684 31.1595 29.5932 31.0057C29.5163 30.9374 29.4394 30.8733 29.3668 30.8006C29.3027 30.7365 29.2386 30.6682 29.1788 30.5955C29.1061 30.5101 29.0378 30.3605 29.2386 30.681C29.2087 30.634 29.1745 30.5913 29.1403 30.5443C29.0249 30.3734 28.9309 30.1896 28.8498 30.0016C28.8925 30.1042 28.9352 30.2067 28.9779 30.3093C28.8669 30.0444 28.79 29.7709 28.7472 29.4846C28.7643 29.6 28.7771 29.7111 28.7942 29.8264C28.7429 29.4291 28.76 29.0189 28.76 28.6173C28.76 27.8995 28.76 27.1816 28.76 26.4638C28.76 24.8274 28.76 23.1866 28.76 21.5502C28.76 21.0802 28.7301 20.5974 28.7942 20.1317C28.7771 20.247 28.7643 20.3581 28.7472 20.4735C28.79 20.1872 28.8669 19.9137 28.9779 19.6488C28.9352 19.7514 28.8925 19.8539 28.8498 19.9565C28.9309 19.7685 29.0292 19.5847 29.1403 19.4138C29.1446 19.4053 29.2258 19.2771 29.2386 19.2771C29.2343 19.2771 29.0036 19.5591 29.1574 19.3839C29.2258 19.307 29.2899 19.2301 29.3625 19.1575C29.4266 19.0934 29.4949 19.0293 29.5676 18.9695C29.653 18.8968 29.8026 18.8285 29.4821 19.0293C29.5291 18.9994 29.5719 18.9652 29.6189 18.931C29.7898 18.8157 29.9735 18.7217 30.1615 18.6405C30.0589 18.6832 29.9564 18.7259 29.8539 18.7687C30.1188 18.6576 30.3922 18.5807 30.6785 18.5379C30.5631 18.555 30.452 18.5678 30.3367 18.5849C30.8152 18.5208 31.3536 18.5208 31.8364 18.5849C31.721 18.5678 31.6099 18.555 31.4946 18.5379C31.7809 18.5807 32.0543 18.6576 32.3192 18.7687C32.2167 18.7259 32.1141 18.6832 32.0116 18.6405C32.1996 18.7217 32.3833 18.8199 32.5542 18.931C32.5628 18.9353 32.6909 19.0165 32.6909 19.0293C32.6909 19.025 32.4089 18.7943 32.5841 18.9481C32.661 19.0165 32.7379 19.0806 32.8106 19.1532C32.8747 19.2173 32.9388 19.2857 32.9986 19.3583C33.0712 19.4437 33.1396 19.5933 32.9388 19.2728C32.9687 19.3198 33.0028 19.3626 33.037 19.4096C33.1524 19.5805 33.2464 19.7642 33.3276 19.9522C33.2848 19.8497 33.2421 19.7471 33.1994 19.6446C33.3105 19.9095 33.3874 20.1829 33.4301 20.4692C33.413 20.3538 33.4002 20.2427 33.3831 20.1274C33.4344 20.5247 33.4173 20.9349 33.4173 21.3366C33.4173 22.0544 33.4173 22.7722 33.4173 23.49C33.4173 25.1265 33.4173 26.7672 33.4173 28.4036C33.4173 28.8736 33.4472 29.3564 33.3831 29.8222C33.4002 29.7068 33.413 29.5957 33.4301 29.4804C33.3874 29.7666 33.3105 30.0401 33.1994 30.305C33.2421 30.2024 33.2848 30.0999 33.3276 29.9974C33.2464 30.1854 33.1481 30.3691 33.037 30.54C33.0328 30.5485 32.9516 30.6767 32.9388 30.6767C32.943 30.6767 33.1738 30.3947 33.0199 30.5699C32.9516 30.6468 32.8875 30.7237 32.8148 30.7964C32.7508 30.8604 32.6824 30.9245 32.6098 30.9844C32.5243 31.057 32.3748 31.1254 32.6952 30.9245C32.6482 30.9544 32.6055 30.9886 32.5585 31.0228C32.3876 31.1382 32.2039 31.2322 32.0159 31.3134C32.1184 31.2706 32.2209 31.2279 32.3235 31.1852C32.0586 31.2963 31.7851 31.3732 31.4989 31.4159C31.6142 31.3988 31.7253 31.386 31.8407 31.3689C31.4989 31.4159 31.157 31.4031 30.8109 31.4031C30.1401 31.4031 29.4992 31.9927 29.5291 32.6849C29.559 33.3771 30.0889 33.9667 30.8109 33.9667Z" fill="black"/>
<path d="M5.15762 33.9667C5.45244 33.9667 5.74726 33.9795 6.04208 33.9496C6.72571 33.8813 7.35807 33.7146 7.96053 33.3813C9.03725 32.7874 9.86616 31.7193 10.1781 30.5314C10.4173 29.6171 10.3319 28.6045 10.3319 27.6687C10.3319 26.2801 10.3319 24.8957 10.3319 23.5071C10.3319 22.5628 10.3319 21.6186 10.3319 20.6743C10.3319 19.8027 10.114 18.9268 9.64825 18.1833C8.9988 17.1493 7.93489 16.346 6.72998 16.0939C5.82417 15.9059 4.70472 15.8974 3.82026 16.1794C2.65381 16.5511 1.59845 17.3843 1.05582 18.4995C0.709727 19.2087 0.547363 19.9437 0.547363 20.7341C0.547363 21.1101 0.547363 21.4904 0.547363 21.8664C0.547363 23.2166 0.547363 24.571 0.547363 25.9212C0.547363 26.9894 0.547363 28.0533 0.547363 29.1215C0.547363 29.7154 0.598636 30.3178 0.812272 30.8775C1.25236 32.0226 2.077 33.0267 3.21781 33.5223C3.83735 33.8001 4.46972 33.9582 5.15762 33.9667C5.82844 33.971 6.46935 33.3728 6.43944 32.6849C6.40953 31.9842 5.87544 31.4074 5.15762 31.4031C4.99953 31.4031 4.84572 31.3903 4.68762 31.3689C4.80299 31.386 4.91408 31.3988 5.02944 31.4159C4.74317 31.3732 4.46972 31.2963 4.20481 31.1852C4.30735 31.2279 4.4099 31.2706 4.51244 31.3134C4.32444 31.2322 4.14072 31.1339 3.96981 31.0228C3.96126 31.0185 3.83308 30.9374 3.83308 30.9245C3.83308 30.9288 4.11508 31.1595 3.9399 31.0057C3.86299 30.9374 3.78608 30.8733 3.71345 30.8006C3.64935 30.7365 3.58526 30.6682 3.52545 30.5955C3.45281 30.5101 3.38445 30.3605 3.58526 30.681C3.55536 30.634 3.52117 30.5913 3.48699 30.5443C3.37163 30.3734 3.27763 30.1896 3.19645 30.0016C3.23917 30.1042 3.2819 30.2067 3.32463 30.3093C3.21354 30.0444 3.13663 29.7709 3.0939 29.4846C3.11099 29.6 3.12381 29.7111 3.1409 29.8264C3.08963 29.4291 3.10672 29.0189 3.10672 28.6173C3.10672 27.8995 3.10672 27.1816 3.10672 26.4638C3.10672 24.8274 3.10672 23.1866 3.10672 21.5502C3.10672 21.0802 3.07681 20.5974 3.1409 20.1317C3.12381 20.247 3.11099 20.3581 3.0939 20.4735C3.13663 20.1872 3.21354 19.9137 3.32463 19.6488C3.2819 19.7514 3.23917 19.8539 3.19645 19.9565C3.27763 19.7685 3.3759 19.5847 3.48699 19.4138C3.49126 19.4053 3.57245 19.2771 3.58526 19.2771C3.58099 19.2771 3.35027 19.5591 3.50408 19.3839C3.57245 19.307 3.63654 19.2301 3.70917 19.1575C3.77326 19.0934 3.84163 19.0293 3.91426 18.9695C3.99972 18.8968 4.14926 18.8285 3.82881 19.0293C3.87581 18.9994 3.91854 18.9652 3.96554 18.931C4.13644 18.8157 4.32017 18.7217 4.50817 18.6405C4.40563 18.6832 4.30308 18.7259 4.20053 18.7687C4.46544 18.6576 4.7389 18.5807 5.02517 18.5379C4.90981 18.555 4.79872 18.5678 4.68335 18.5849C5.1619 18.5208 5.70026 18.5208 6.18307 18.5849C6.06771 18.5678 5.95662 18.555 5.84126 18.5379C6.12753 18.5807 6.40098 18.6576 6.66589 18.7687C6.56335 18.7259 6.4608 18.6832 6.35826 18.6405C6.54626 18.7217 6.72998 18.8199 6.90089 18.931C6.90944 18.9353 7.03762 19.0165 7.03762 19.0293C7.03762 19.025 6.75562 18.7943 6.9308 18.9481C7.00771 19.0165 7.08462 19.0806 7.15726 19.1532C7.22135 19.2173 7.28544 19.2857 7.34525 19.3583C7.41789 19.4437 7.48625 19.5933 7.28544 19.2728C7.31535 19.3198 7.34953 19.3626 7.38371 19.4096C7.49907 19.5805 7.59307 19.7642 7.67425 19.9522C7.63153 19.8497 7.5888 19.7471 7.54607 19.6446C7.65716 19.9095 7.73407 20.1829 7.7768 20.4692C7.75971 20.3538 7.74689 20.2427 7.7298 20.1274C7.78107 20.5247 7.76398 20.9349 7.76398 21.3366C7.76398 22.0544 7.76398 22.7722 7.76398 23.49C7.76398 25.1265 7.76398 26.7672 7.76398 28.4036C7.76398 28.8736 7.79389 29.3564 7.7298 29.8222C7.74689 29.7068 7.75971 29.5957 7.7768 29.4804C7.73407 29.7666 7.65716 30.0401 7.54607 30.305C7.5888 30.2024 7.63153 30.0999 7.67425 29.9974C7.59307 30.1854 7.4948 30.3691 7.38371 30.54C7.37944 30.5485 7.29825 30.6767 7.28544 30.6767C7.28971 30.6767 7.52044 30.3947 7.36662 30.5699C7.29825 30.6468 7.23416 30.7237 7.16153 30.7964C7.09744 30.8604 7.02907 30.9245 6.95644 30.9844C6.87098 31.057 6.72144 31.1254 7.04189 30.9245C6.99489 30.9544 6.95216 30.9886 6.90516 31.0228C6.73426 31.1382 6.55053 31.2322 6.36253 31.3134C6.46508 31.2706 6.56762 31.2279 6.67016 31.1852C6.40526 31.2963 6.1318 31.3732 5.84553 31.4159C5.96089 31.3988 6.07198 31.386 6.18735 31.3689C5.84553 31.4159 5.50371 31.4031 5.15762 31.4031C4.48681 31.4031 3.8459 31.9927 3.87581 32.6849C3.90572 33.3771 4.43981 33.9667 5.15762 33.9667Z" fill="black"/>
<path d="M3.10672 29.0745C3.10672 27.6986 3.10672 26.3228 3.10672 24.947C3.10672 23.0371 3.10672 21.1272 3.10672 19.2173C3.10672 18.2944 3.13236 17.3758 3.25627 16.4571C3.23917 16.5725 3.22636 16.6836 3.20927 16.7989C3.40581 15.3633 3.79035 13.9619 4.35435 12.6288C4.31163 12.7313 4.2689 12.8339 4.22617 12.9364C4.5509 12.1716 4.93544 11.4281 5.37126 10.7189C5.5849 10.3728 5.80708 10.0395 6.04635 9.71051C6.10617 9.62506 6.17026 9.54387 6.23008 9.46269C6.25144 9.43278 6.27708 9.40287 6.29844 9.37296C6.43517 9.18924 6.09335 9.6336 6.23435 9.45415C6.36253 9.29178 6.49071 9.12942 6.62744 8.9756C7.15298 8.35179 7.7298 7.76642 8.3408 7.22806C8.49034 7.09988 8.63989 6.9717 8.7937 6.84352C8.86634 6.7837 8.93898 6.72388 9.01161 6.66834C9.08425 6.60852 9.26798 6.47606 8.93043 6.72815C8.97743 6.69397 9.02016 6.65979 9.06716 6.62561C9.39616 6.37779 9.73798 6.13852 10.0883 5.91634C10.8702 5.41643 11.6906 4.98489 12.5452 4.6217C12.4426 4.66443 12.3401 4.70716 12.2375 4.74989C13.5706 4.18589 14.9721 3.80134 16.4077 3.6048C16.2923 3.62189 16.1812 3.63471 16.0659 3.6518C17.5229 3.45525 19.0055 3.45525 20.4625 3.6518C20.3471 3.63471 20.236 3.62189 20.1207 3.6048C21.5563 3.80134 22.9578 4.18589 24.2908 4.74989C24.1883 4.70716 24.0858 4.66443 23.9832 4.6217C24.748 4.94643 25.4915 5.33098 26.2007 5.76679C26.5468 5.98043 26.8801 6.20261 27.2091 6.44188C27.2946 6.5017 27.3757 6.56579 27.4569 6.62561C27.4868 6.64697 27.5167 6.67261 27.5467 6.69397C27.7304 6.8307 27.286 6.48888 27.4655 6.62988C27.6278 6.75806 27.7902 6.88624 27.944 7.02297C28.5678 7.54852 29.1532 8.12533 29.6916 8.73633C29.8197 8.88588 29.9479 9.03542 30.0761 9.18924C30.1359 9.26187 30.1957 9.33451 30.2513 9.40715C30.3111 9.47978 30.4436 9.66351 30.1915 9.32596C30.2256 9.37296 30.2598 9.41569 30.294 9.46269C30.5418 9.79169 30.7811 10.1335 31.0033 10.4839C31.5032 11.2658 31.9347 12.0861 32.2979 12.9407C32.2552 12.8381 32.2125 12.7356 32.1697 12.633C32.7337 13.9661 33.1183 15.3676 33.3148 16.8032C33.2977 16.6879 33.2849 16.5768 33.2678 16.4614C33.396 17.4185 33.4174 18.3756 33.4174 19.3369C33.4174 20.3667 33.4174 21.3964 33.4174 22.4261C33.4174 24.9983 33.4174 27.5747 33.4174 30.1469C33.4174 30.9673 33.4515 31.8047 33.3447 32.6208C33.3618 32.5054 33.3746 32.3944 33.3917 32.279C33.2977 32.9455 33.1183 33.5993 32.8619 34.2231C32.9046 34.1205 32.9474 34.018 32.9901 33.9154C32.7936 34.3854 32.55 34.8341 32.268 35.2571C32.1996 35.3596 32.127 35.4579 32.0586 35.5562C31.9006 35.7784 32.2466 35.3254 32.1056 35.4964C32.0715 35.5391 32.0373 35.5861 31.9988 35.6288C31.8365 35.8254 31.6698 36.0091 31.4904 36.1885C31.3109 36.368 31.1229 36.5389 30.9306 36.697C30.8879 36.7312 30.8452 36.7696 30.7982 36.8038C30.623 36.9448 31.0503 36.6158 30.8794 36.7397C30.7726 36.8166 30.6657 36.8935 30.5589 36.9662C30.1359 37.2482 29.6873 37.4917 29.2173 37.6883C29.3198 37.6455 29.4224 37.6028 29.5249 37.5601C28.9011 37.8164 28.2517 37.9959 27.5808 38.0899C27.6962 38.0728 27.8073 38.06 27.9227 38.0429C27.2305 38.1369 26.5297 38.1155 25.8333 38.1155C24.9617 38.1155 24.09 38.1155 23.2184 38.1155C23.0048 38.1155 22.7868 38.1155 22.5732 38.1155C21.9024 38.1155 21.2615 38.7052 21.2914 39.3973C21.3213 40.0938 21.8554 40.6792 22.5732 40.6792C23.6542 40.6792 24.7352 40.6792 25.8162 40.6792C26.2221 40.6792 26.6323 40.6877 27.0382 40.6792C28.1192 40.6535 29.2087 40.4442 30.2086 40.034C32.2552 39.188 34.007 37.6712 34.9983 35.6715C35.6862 34.2914 35.9895 32.8216 35.9895 31.2877C35.9895 30.3862 35.9895 29.4846 35.9895 28.5831C35.9895 27.1816 35.9895 25.7802 35.9895 24.383C35.9895 23.0756 35.9895 21.7681 35.9895 20.4649C35.9895 19.8668 35.9895 19.2643 35.9895 18.6661C35.9853 16.6537 35.6477 14.6156 34.9555 12.7228C34.2249 10.7146 33.161 8.88588 31.7895 7.24515C30.4991 5.7027 28.9182 4.37816 27.1877 3.36125C25.4146 2.32298 23.4406 1.57953 21.4153 1.2249C19.232 0.844624 17.0358 0.857442 14.861 1.2719C12.8571 1.65217 10.9002 2.42126 9.15261 3.47662C7.43071 4.51916 5.86689 5.85652 4.60217 7.41606C3.24772 9.08242 2.2009 10.9325 1.49591 12.962C0.863544 14.7908 0.551636 16.7434 0.547363 18.6747C0.547363 19.4352 0.547363 20.1915 0.547363 20.952C0.547363 22.3535 0.547363 23.7549 0.547363 25.1564C0.547363 26.2844 0.547363 27.4166 0.547363 28.5446C0.547363 28.7198 0.547363 28.8993 0.547363 29.0745C0.547363 29.7453 1.137 30.3862 1.82918 30.3563C2.51709 30.3221 3.10672 29.7923 3.10672 29.0745Z" fill="black"/>
<path d="M21.2871 39.3972C21.2871 39.5168 21.2786 39.6322 21.2615 39.7476C21.2786 39.6322 21.2914 39.5211 21.3085 39.4058C21.2743 39.6322 21.2145 39.8501 21.129 40.0637C21.1718 39.9612 21.2145 39.8587 21.2572 39.7561C21.1931 39.9014 21.1205 40.0424 21.035 40.1748C21.0308 40.1834 20.9667 40.2945 20.9581 40.2902C20.9539 40.2902 21.1718 40.0296 21.0564 40.162C21.0009 40.2261 20.9453 40.2859 20.8898 40.3457C20.8385 40.397 20.783 40.4483 20.7274 40.4953C20.6462 40.5679 20.5309 40.5936 20.8342 40.4141C20.8043 40.4312 20.7744 40.4568 20.7445 40.4782C20.6035 40.5722 20.454 40.6491 20.3001 40.7175C20.4027 40.6747 20.5052 40.632 20.6078 40.5893C20.3941 40.6747 20.1762 40.7346 19.9498 40.7687C20.0651 40.7517 20.1762 40.7388 20.2916 40.7217C19.7148 40.7944 19.108 40.7474 18.527 40.7474C17.9331 40.7474 17.3178 40.7944 16.7239 40.726C16.8392 40.7431 16.9503 40.7559 17.0657 40.773C16.8435 40.7388 16.6256 40.6833 16.4162 40.6021C16.5188 40.6448 16.6213 40.6876 16.7239 40.7303C16.5615 40.6619 16.4034 40.5807 16.2581 40.4825C16.1385 40.4013 16.1171 40.3073 16.3051 40.5252C16.2496 40.4611 16.1727 40.4098 16.1129 40.35C16.0616 40.2987 15.9676 40.2218 15.9377 40.1577C15.9761 40.209 16.0189 40.2603 16.0573 40.3158C16.0317 40.2817 16.0061 40.2432 15.9804 40.209C15.8821 40.0637 15.801 39.9057 15.7326 39.7433C15.7753 39.8458 15.8181 39.9484 15.8608 40.0509C15.7796 39.8416 15.7198 39.6279 15.6899 39.4015C15.707 39.5168 15.7198 39.6279 15.7369 39.7433C15.7112 39.5083 15.707 39.2776 15.7369 39.0468C15.7198 39.1622 15.707 39.2733 15.6899 39.3887C15.7241 39.1622 15.7839 38.9443 15.8693 38.7307C15.8266 38.8332 15.7839 38.9358 15.7411 39.0383C15.8052 38.893 15.8779 38.752 15.9633 38.6196C15.9676 38.611 16.0317 38.4999 16.0402 38.5042C16.0445 38.5042 15.8266 38.7648 15.942 38.6324C15.9975 38.5683 16.0531 38.5085 16.1086 38.4487C16.1599 38.3974 16.2154 38.3461 16.271 38.2991C16.3521 38.2265 16.4675 38.2008 16.1641 38.3803C16.1941 38.3632 16.224 38.3376 16.2539 38.3162C16.3949 38.2222 16.5444 38.1453 16.6982 38.0769C16.5957 38.1197 16.4931 38.1624 16.3906 38.2051C16.6042 38.1197 16.8221 38.0598 17.0486 38.0257C16.9332 38.0428 16.8221 38.0556 16.7068 38.0727C17.2836 38 17.8903 38.047 18.4714 38.047C19.0653 38.047 19.6806 38 20.2745 38.0684C20.1591 38.0513 20.048 38.0385 19.9327 38.0214C20.1549 38.0556 20.3728 38.1111 20.5821 38.1923C20.4796 38.1496 20.377 38.1068 20.2745 38.0641C20.4369 38.1325 20.595 38.2137 20.7402 38.3119C20.8599 38.3931 20.8812 38.4871 20.6932 38.2692C20.7488 38.3333 20.8257 38.3846 20.8855 38.4444C20.9368 38.4957 21.0308 38.5726 21.0607 38.6367C21.0222 38.5854 20.9795 38.5341 20.941 38.4786C20.9667 38.5128 20.9923 38.5512 21.018 38.5854C21.1162 38.7307 21.1974 38.8888 21.2658 39.0511C21.223 38.9486 21.1803 38.846 21.1376 38.7435C21.2188 38.9528 21.2786 39.1665 21.3085 39.3929C21.2914 39.2776 21.2786 39.1665 21.2615 39.0511C21.2786 39.1665 21.2871 39.2818 21.2871 39.3972C21.2957 40.068 21.8725 40.7089 22.5689 40.679C23.2569 40.6491 23.8593 40.115 23.8508 39.3972C23.8337 37.9616 23.0176 36.5217 21.693 35.8979C21.1205 35.6287 20.548 35.4791 19.9113 35.4749C19.7276 35.4749 19.5439 35.4749 19.3559 35.4749C18.7235 35.4749 18.0869 35.4749 17.4545 35.4749C16.6427 35.4749 15.8736 35.5731 15.1472 35.9748C14.0022 36.6028 13.31 37.7693 13.1604 39.0426C12.9895 40.4953 13.7586 41.901 14.9507 42.6957C15.6984 43.1957 16.5615 43.3153 17.4374 43.3153C18.0655 43.3153 18.6936 43.3153 19.3217 43.3153C19.5225 43.3153 19.7233 43.3153 19.9241 43.3153C20.5821 43.311 21.2102 43.1444 21.7956 42.841C23.0603 42.1787 23.8379 40.8029 23.855 39.3929C23.8636 38.7221 23.2611 38.0812 22.5732 38.1111C21.8682 38.1496 21.2957 38.6794 21.2871 39.3972Z" fill="black"/>
</svg>
