<svg width="38" height="39" viewBox="0 0 38 39" fill="none" xmlns="http://www.w3.org/2000/svg">
<path d="M34.0695 6.99622H26.7997V3.93004C26.7997 1.7632 25.0365 0 22.8692 0H3.93047C1.7632 0 0 1.7632 0 3.93047V27.0737C0 29.241 1.7632 31.0046 3.93047 31.0046H11.085V34.0708C11.085 36.2381 12.8482 38.0013 15.0155 38.0013H34.0695C36.2368 38 38 36.2368 38 34.0695V10.9267C38 8.75942 36.2368 6.99622 34.0695 6.99622ZM1.34436 27.0733V3.93047C1.34436 2.50462 2.50462 1.34436 3.93047 1.34436H22.8692C24.2951 1.34436 25.4554 2.50462 25.4554 3.93047V13.1049V14.4497V19.2145V20.5588V25.3245V26.6688V27.0746C25.4554 28.5004 24.2951 29.6607 22.8692 29.6607H3.93047C2.50462 29.6594 1.34436 28.4992 1.34436 27.0733ZM36.6556 34.0695C36.6556 35.4954 35.4954 36.6556 34.0695 36.6556H15.0155C13.5896 36.6556 12.4294 35.4954 12.4294 34.0695V31.0038H22.8697C25.0369 31.0038 26.8006 29.2406 26.8006 27.0733V26.6676H32.2848V25.3232H26.8006V20.5576H32.2848V19.2132H26.8006V14.4493H32.2848V13.1045H26.8006V8.34058H34.0708C35.4966 8.34058 36.6569 9.50084 36.6569 10.9267V34.07H36.6556V34.0695Z" fill="black"/>
<path d="M21.0845 6.11035H5.60034V7.45471H21.0845V6.11035Z" fill="black"/>
<path d="M21.0845 12.2192H5.60034V13.564H21.0845V12.2192Z" fill="black"/>
<path d="M21.0845 18.3286H5.60034V19.673H21.0845V18.3286Z" fill="black"/>
</svg>
