<svg width="24" height="24" viewBox="0 0 24 24" fill="none" xmlns="http://www.w3.org/2000/svg">
<path d="M12 0C18.6277 0 24 5.373 24 12C24 18.6278 18.6277 24 12 24C5.37217 24 0 18.6277 0 12C0 5.373 5.37225 0 12 0Z" fill="#86C9EF"/>
<path d="M5.25 9.75001C6.37199 8.8545 7.96727 6.88799 9.21151 6.88799C10.4543 6.88799 10.7595 8.35574 10.9291 9.68699C11.1008 11.0182 11.589 13.9305 12.246 13.9305C12.9045 13.9305 14.4038 11.3543 14.3183 10.359C14.2343 9.36371 13.1483 9.51299 12.5514 9.79878C13.1004 7.8083 14.3678 6.75 15.9886 6.75C17.6101 6.75 18.0008 7.89522 18.0008 9.30151C18.0008 11.442 13.6621 18 11.0408 18C9.41929 18 9.01725 15.6106 8.68879 14.4278C8.3595 13.2465 7.71303 10.1468 6.95708 9.94798C6.66379 9.89921 5.83583 10.557 5.83583 10.557L5.25 9.75001Z" fill="white"/>
</svg>
