<svg width="29" height="21" viewBox="0 0 29 21" fill="none" xmlns="http://www.w3.org/2000/svg">
<path d="M28.4025 3.17717C28.0682 1.93484 27.0887 0.955585 25.8466 0.621053C23.5772 0 14.4997 0 14.4997 0C14.4997 0 5.42243 0 3.15306 0.597379C1.93484 0.93169 0.931469 1.93507 0.597158 3.17717C0 5.44633 0 10.1523 0 10.1523C0 10.1523 0 14.882 0.597158 17.1275C0.93169 18.3696 1.91095 19.3491 3.15328 19.6836C5.44633 20.3047 14.4999 20.3047 14.4999 20.3047C14.4999 20.3047 23.5772 20.3047 25.8466 19.7073C27.0889 19.373 28.0682 18.3935 28.4027 17.1514C28.9999 14.882 28.9999 10.1762 28.9999 10.1762C28.9999 10.1762 29.0238 5.44633 28.4025 3.17717Z" fill="#FF0000"/>
<path d="M11.6098 14.5002L19.1583 10.1525L11.6098 5.80493V14.5002Z" fill="white"/>
</svg>
