<svg width="19" height="19" viewBox="0 0 19 19" fill="none" xmlns="http://www.w3.org/2000/svg">
<circle cx="9.5" cy="9.5" r="7.5" fill="white"/>
<path d="M17.7274 6.48969C17.7272 5.41409 17.153 4.42007 16.2216 3.88225C15.7639 3.618 15.3837 3.23784 15.1194 2.78015C14.5817 1.84861 13.5877 1.27476 12.5121 1.27476C11.9835 1.27476 11.4643 1.13562 11.0066 0.871348C10.0749 0.333425 8.92691 0.333414 7.99524 0.871337C7.53752 1.13562 7.01827 1.27476 6.48973 1.27476C5.41406 1.27476 4.41995 1.84885 3.8821 2.7804C3.61786 3.23807 3.23773 3.61823 2.78005 3.88246C1.84854 4.42025 1.2747 5.41422 1.2747 6.48983C1.2747 7.01836 1.13556 7.53763 0.871285 7.99535C0.333361 8.92702 0.333353 10.075 0.871277 11.0067C1.13556 11.4644 1.2747 11.9836 1.2747 12.5122C1.2747 13.5878 1.84871 14.5819 2.78026 15.1197C3.23801 15.384 3.61824 15.7643 3.88253 16.222C4.4204 17.1536 5.4145 17.7276 6.4902 17.7276C7.01868 17.7276 7.53786 17.8667 7.99554 18.1309C8.92709 18.6687 10.075 18.6686 11.0065 18.1307C11.4642 17.8664 11.9836 17.7273 12.5121 17.7273C13.5878 17.7273 14.5818 17.1532 15.1197 16.2217C15.384 15.7639 15.7642 15.3837 16.222 15.1194C17.1535 14.5816 17.7275 13.5875 17.7275 12.5118C17.7275 11.9833 17.8667 11.4641 18.1309 11.0063C18.6689 10.0747 18.6688 8.9266 18.1309 7.99492C17.8667 7.53729 17.7275 7.01812 17.7274 6.48969ZM8.64357 13.3889C8.46645 13.566 8.2331 13.652 8.0008 13.6488C7.76845 13.6521 7.53516 13.566 7.35804 13.3889L4.57992 10.6107C4.23192 10.2627 4.23192 9.69817 4.57992 9.35016L5.31537 8.61471C5.66338 8.2667 6.57595 8.61471 6.57595 8.61471L8.0008 10.0396L12.4256 5.61443C12.7736 5.26642 13.3382 5.26642 13.6862 5.61443L14.4216 6.34988C14.7696 6.69788 14.7696 7.26244 14.4216 7.61045L8.64357 13.3889Z" fill="#5AF19B"/>
</svg>
