<svg width="109" height="14" viewBox="0 0 109 14" fill="none" xmlns="http://www.w3.org/2000/svg">
<path d="M11.528 0.219999C11.924 0.219999 12.242 0.351999 12.482 0.616C12.734 0.867999 12.86 1.198 12.86 1.606V11.83C12.86 12.226 12.746 12.538 12.518 12.766C12.29 12.994 11.99 13.108 11.618 13.108C11.258 13.108 10.964 12.994 10.736 12.766C10.508 12.538 10.394 12.226 10.394 11.83V5.476L7.838 10.282C7.67 10.594 7.484 10.822 7.28 10.966C7.088 11.11 6.854 11.182 6.578 11.182C6.314 11.182 6.08 11.11 5.876 10.966C5.672 10.822 5.486 10.594 5.318 10.282L2.762 5.566V11.83C2.762 12.214 2.648 12.526 2.42 12.766C2.192 12.994 1.892 13.108 1.52 13.108C1.16 13.108 0.866 12.994 0.638 12.766C0.41 12.538 0.296 12.226 0.296 11.83V1.606C0.296 1.198 0.416 0.867999 0.656 0.616C0.908 0.351999 1.232 0.219999 1.628 0.219999C2.204 0.219999 2.642 0.525999 2.942 1.138L6.596 8.068L10.232 1.138C10.556 0.525999 10.988 0.219999 11.528 0.219999ZM16.7263 13C16.3063 13 15.9823 12.886 15.7543 12.658C15.5263 12.43 15.4123 12.106 15.4123 11.686V1.624C15.4123 1.204 15.5263 0.879999 15.7543 0.651999C15.9823 0.423999 16.3063 0.309999 16.7263 0.309999H23.0983C23.9863 0.309999 24.4303 0.669999 24.4303 1.39C24.4303 2.122 23.9863 2.488 23.0983 2.488H18.1483V5.458H22.7383C23.6263 5.458 24.0703 5.824 24.0703 6.556C24.0703 7.276 23.6263 7.636 22.7383 7.636H18.1483V10.822H23.0983C23.9863 10.822 24.4303 11.188 24.4303 11.92C24.4303 12.64 23.9863 13 23.0983 13H16.7263ZM30.4785 13.162C29.5305 13.162 28.6485 13.054 27.8325 12.838C27.0165 12.61 26.3505 12.292 25.8345 11.884C25.6545 11.752 25.5225 11.614 25.4385 11.47C25.3665 11.314 25.3305 11.122 25.3305 10.894C25.3305 10.594 25.4205 10.33 25.6005 10.102C25.7925 9.874 26.0085 9.76 26.2485 9.76C26.3805 9.76 26.5065 9.784 26.6265 9.832C26.7585 9.868 26.9145 9.94 27.0945 10.048C27.6105 10.372 28.1325 10.612 28.6605 10.768C29.1885 10.912 29.7705 10.984 30.4065 10.984C31.1985 10.984 31.8045 10.852 32.2245 10.588C32.6445 10.324 32.8545 9.946 32.8545 9.454C32.8545 9.082 32.6565 8.782 32.2605 8.554C31.8765 8.326 31.1865 8.11 30.1905 7.906C29.0745 7.678 28.1805 7.402 27.5085 7.078C26.8485 6.754 26.3625 6.352 26.0505 5.872C25.7505 5.392 25.6005 4.81 25.6005 4.126C25.6005 3.37 25.8165 2.692 26.2485 2.092C26.6925 1.48 27.2985 1.006 28.0665 0.669999C28.8465 0.321999 29.7225 0.147999 30.6945 0.147999C32.3985 0.147999 33.8025 0.573999 34.9065 1.426C35.0865 1.57 35.2125 1.72 35.2845 1.876C35.3685 2.02 35.4105 2.2 35.4105 2.416C35.4105 2.716 35.3145 2.98 35.1225 3.208C34.9425 3.436 34.7325 3.55 34.4925 3.55C34.3605 3.55 34.2345 3.532 34.1145 3.496C34.0065 3.46 33.8505 3.382 33.6465 3.262C33.1545 2.95 32.6985 2.716 32.2785 2.56C31.8705 2.404 31.3485 2.326 30.7125 2.326C29.9805 2.326 29.4045 2.47 28.9845 2.758C28.5645 3.034 28.3545 3.418 28.3545 3.91C28.3545 4.198 28.4325 4.438 28.5885 4.63C28.7565 4.81 29.0265 4.972 29.3985 5.116C29.7825 5.26 30.3225 5.41 31.0185 5.566C32.6505 5.926 33.8205 6.388 34.5285 6.952C35.2485 7.516 35.6085 8.29 35.6085 9.274C35.6085 10.042 35.3925 10.72 34.9605 11.308C34.5405 11.896 33.9405 12.352 33.1605 12.676C32.3925 13 31.4985 13.162 30.4785 13.162ZM47.6031 0.219999C48.0231 0.219999 48.3591 0.345999 48.6111 0.598C48.8631 0.849999 48.9891 1.186 48.9891 1.606V11.704C48.9891 12.124 48.8631 12.466 48.6111 12.73C48.3591 12.982 48.0231 13.108 47.6031 13.108C47.1831 13.108 46.8471 12.982 46.5951 12.73C46.3551 12.478 46.2351 12.136 46.2351 11.704V7.672H40.3851V11.704C40.3851 12.124 40.2591 12.466 40.0071 12.73C39.7551 12.982 39.4251 13.108 39.0171 13.108C38.5971 13.108 38.2611 12.982 38.0091 12.73C37.7571 12.478 37.6311 12.136 37.6311 11.704V1.606C37.6311 1.186 37.7571 0.849999 38.0091 0.598C38.2611 0.345999 38.5971 0.219999 39.0171 0.219999C39.4371 0.219999 39.7671 0.345999 40.0071 0.598C40.2591 0.849999 40.3851 1.186 40.3851 1.606V5.44H46.2351V1.606C46.2351 1.186 46.3551 0.849999 46.5951 0.598C46.8471 0.345999 47.1831 0.219999 47.6031 0.219999ZM67.2498 1.066C67.3578 0.777999 67.5198 0.561999 67.7358 0.417999C67.9638 0.261999 68.2158 0.184 68.4918 0.184C68.8398 0.184 69.1338 0.292 69.3738 0.508C69.6258 0.723999 69.7518 1.018 69.7518 1.39C69.7518 1.57 69.7158 1.768 69.6438 1.984L65.8998 12.226C65.7918 12.514 65.5998 12.742 65.3238 12.91C65.0598 13.066 64.7658 13.144 64.4418 13.144C64.1178 13.144 63.8238 13.066 63.5598 12.91C63.2958 12.742 63.1098 12.514 63.0018 12.226L60.3198 4.648L57.5658 12.226C57.4578 12.514 57.2718 12.742 57.0078 12.91C56.7438 13.066 56.4498 13.144 56.1258 13.144C55.8138 13.144 55.5198 13.066 55.2438 12.91C54.9798 12.742 54.7938 12.514 54.6858 12.226L50.9418 1.984C50.8698 1.78 50.8338 1.588 50.8338 1.408C50.8338 1.036 50.9658 0.742 51.2298 0.526C51.4938 0.298 51.8058 0.184 52.1658 0.184C52.4538 0.184 52.7118 0.261999 52.9398 0.417999C53.1798 0.561999 53.3538 0.777999 53.4618 1.066L56.2338 9.04L59.1138 1.102C59.2218 0.813999 59.3898 0.591999 59.6178 0.436C59.8578 0.28 60.1098 0.202 60.3738 0.202C60.6498 0.202 60.9018 0.28 61.1298 0.436C61.3578 0.591999 61.5258 0.819999 61.6338 1.12L64.3878 9.184L67.2498 1.066ZM77.0725 13.162C75.8125 13.162 74.7145 12.898 73.7785 12.37C72.8545 11.83 72.1405 11.074 71.6365 10.102C71.1325 9.118 70.8805 7.966 70.8805 6.646C70.8805 5.326 71.1325 4.18 71.6365 3.208C72.1405 2.224 72.8545 1.468 73.7785 0.94C74.7145 0.411999 75.8125 0.147999 77.0725 0.147999C78.3325 0.147999 79.4245 0.411999 80.3485 0.94C81.2845 1.468 82.0045 2.224 82.5085 3.208C83.0125 4.18 83.2645 5.326 83.2645 6.646C83.2645 7.966 83.0125 9.118 82.5085 10.102C82.0045 11.074 81.2845 11.83 80.3485 12.37C79.4245 12.898 78.3325 13.162 77.0725 13.162ZM77.0725 10.984C78.1285 10.984 78.9565 10.612 79.5565 9.868C80.1685 9.124 80.4745 8.05 80.4745 6.646C80.4745 5.242 80.1745 4.174 79.5745 3.442C78.9745 2.698 78.1405 2.326 77.0725 2.326C76.0045 2.326 75.1705 2.698 74.5705 3.442C73.9825 4.174 73.6885 5.242 73.6885 6.646C73.6885 8.05 73.9885 9.124 74.5885 9.868C75.1885 10.612 76.0165 10.984 77.0725 10.984ZM95.8124 11.218C95.9924 11.482 96.0824 11.74 96.0824 11.992C96.0824 12.328 95.9444 12.604 95.6684 12.82C95.4044 13.036 95.0924 13.144 94.7324 13.144C94.5044 13.144 94.2824 13.09 94.0664 12.982C93.8504 12.874 93.6704 12.706 93.5264 12.478L91.1504 8.95C90.9464 8.638 90.7304 8.416 90.5024 8.284C90.2744 8.14 89.9864 8.068 89.6384 8.068H88.1804V11.704C88.1804 12.136 88.0544 12.478 87.8024 12.73C87.5624 12.982 87.2324 13.108 86.8124 13.108C86.3804 13.108 86.0384 12.982 85.7864 12.73C85.5344 12.478 85.4084 12.136 85.4084 11.704V1.624C85.4084 1.204 85.5224 0.879999 85.7504 0.651999C85.9784 0.423999 86.3024 0.309999 86.7224 0.309999H91.2404C92.7284 0.309999 93.8504 0.639999 94.6064 1.3C95.3744 1.948 95.7584 2.89 95.7584 4.126C95.7584 5.098 95.4884 5.908 94.9484 6.556C94.4084 7.204 93.6464 7.63 92.6624 7.834C93.0224 7.906 93.3404 8.05 93.6164 8.266C93.9044 8.47 94.1804 8.77 94.4444 9.166L95.8124 11.218ZM90.8264 5.944C91.6304 5.944 92.2124 5.806 92.5724 5.53C92.9324 5.242 93.1124 4.798 93.1124 4.198C93.1124 3.586 92.9324 3.142 92.5724 2.866C92.2124 2.59 91.6304 2.452 90.8264 2.452H88.1444V5.944H90.8264ZM108.308 10.894C108.584 11.17 108.722 11.47 108.722 11.794C108.722 12.13 108.59 12.424 108.326 12.676C108.074 12.928 107.78 13.054 107.444 13.054C107.06 13.054 106.718 12.898 106.418 12.586L100.838 7.132V11.704C100.838 12.136 100.712 12.478 100.46 12.73C100.208 12.982 99.8655 13.108 99.4335 13.108C99.0015 13.108 98.6595 12.982 98.4075 12.73C98.1555 12.478 98.0295 12.136 98.0295 11.704V1.606C98.0295 1.186 98.1555 0.849999 98.4075 0.598C98.6595 0.345999 99.0015 0.219999 99.4335 0.219999C99.8655 0.219999 100.208 0.345999 100.46 0.598C100.712 0.849999 100.838 1.186 100.838 1.606V5.908L106.274 0.633999C106.538 0.369999 106.838 0.237999 107.174 0.237999C107.51 0.237999 107.804 0.363999 108.056 0.616C108.308 0.855999 108.434 1.144 108.434 1.48C108.434 1.828 108.29 2.14 108.002 2.416L103.718 6.43L108.308 10.894Z" fill="white"/>
</svg>
