<svg width="148" height="33" viewBox="0 0 148 33" fill="none" xmlns="http://www.w3.org/2000/svg">
<path d="M15.2709 15.4043C15.8093 15.4043 16.2416 15.5838 16.5679 15.9427C16.9105 16.2853 17.0818 16.734 17.0818 17.2887V31.1891C17.0818 31.7275 16.9268 32.1517 16.6169 32.4617C16.3069 32.7717 15.899 32.9267 15.3932 32.9267C14.9038 32.9267 14.5041 32.7717 14.1941 32.4617C13.8841 32.1517 13.7291 31.7275 13.7291 31.1891V22.5503L10.254 29.0845C10.0256 29.5087 9.77272 29.8186 9.49536 30.0144C9.23432 30.2102 8.91617 30.3081 8.54093 30.3081C8.182 30.3081 7.86385 30.2102 7.5865 30.0144C7.30914 29.8186 7.05626 29.5087 6.82785 29.0845L3.35274 22.6727V31.1891C3.35274 31.7112 3.19775 32.1354 2.88776 32.4617C2.57778 32.7717 2.1699 32.9267 1.66413 32.9267C1.17468 32.9267 0.774965 32.7717 0.464979 32.4617C0.154993 32.1517 0 31.7275 0 31.1891V17.2887C0 16.734 0.163151 16.2853 0.489452 15.9427C0.832068 15.5838 1.27257 15.4043 1.81097 15.4043C2.59409 15.4043 3.18959 15.8203 3.59747 16.6524L8.5654 26.0743L13.5088 16.6524C13.9493 15.8203 14.5367 15.4043 15.2709 15.4043Z" fill="white"/>
<path d="M22.339 32.7798C21.768 32.7798 21.3275 32.6248 21.0175 32.3148C20.7075 32.0048 20.5525 31.5643 20.5525 30.9933V17.3131C20.5525 16.7421 20.7075 16.3016 21.0175 15.9916C21.3275 15.6816 21.768 15.5266 22.339 15.5266H31.0023C32.2096 15.5266 32.8133 16.0161 32.8133 16.995C32.8133 17.9902 32.2096 18.4878 31.0023 18.4878H24.2723V22.5258H30.5128C31.7201 22.5258 32.3238 23.0234 32.3238 24.0186C32.3238 24.9975 31.7201 25.487 30.5128 25.487H24.2723V29.8186H31.0023C32.2096 29.8186 32.8133 30.3162 32.8133 31.3114C32.8133 32.2903 32.2096 32.7798 31.0023 32.7798H22.339Z" fill="white"/>
<path d="M41.036 33.0001C39.7471 33.0001 38.5479 32.8532 37.4385 32.5596C36.3291 32.2496 35.4236 31.8172 34.7221 31.2625C34.4773 31.0831 34.2979 30.8954 34.1837 30.6997C34.0858 30.4876 34.0368 30.2265 34.0368 29.9165C34.0368 29.5087 34.1592 29.1497 34.4039 28.8397C34.665 28.5297 34.9586 28.3748 35.2849 28.3748C35.4644 28.3748 35.6357 28.4074 35.7989 28.4726C35.9783 28.5216 36.1904 28.6195 36.4351 28.7663C37.1367 29.2068 37.8464 29.5331 38.5643 29.7452C39.2821 29.941 40.0734 30.0389 40.9381 30.0389C42.0149 30.0389 42.8388 29.8594 43.4098 29.5005C43.9809 29.1416 44.2664 28.6276 44.2664 27.9587C44.2664 27.453 43.9972 27.0451 43.4588 26.7351C42.9367 26.4251 41.9986 26.1314 40.6444 25.8541C39.1271 25.5441 37.9117 25.1688 36.998 24.7283C36.1007 24.2878 35.4399 23.7413 35.0157 23.0887C34.6079 22.4361 34.4039 21.6448 34.4039 20.7148C34.4039 19.687 34.6976 18.7652 35.2849 17.9494C35.8886 17.1174 36.7125 16.4729 37.7567 16.0161C38.8171 15.543 40.0081 15.3064 41.3297 15.3064C43.6464 15.3064 45.5553 15.8856 47.0563 17.0439C47.301 17.2397 47.4723 17.4437 47.5702 17.6558C47.6844 17.8515 47.7415 18.0963 47.7415 18.3899C47.7415 18.7978 47.611 19.1568 47.3499 19.4667C47.1052 19.7767 46.8197 19.9317 46.4934 19.9317C46.3139 19.9317 46.1426 19.9072 45.9795 19.8583C45.8326 19.8094 45.6205 19.7033 45.3432 19.5402C44.6743 19.116 44.0543 18.7978 43.4833 18.5857C42.9285 18.3736 42.2188 18.2676 41.3541 18.2676C40.3589 18.2676 39.5758 18.4634 39.0048 18.8549C38.4337 19.2302 38.1482 19.7522 38.1482 20.4212C38.1482 20.8127 38.2543 21.139 38.4664 21.4001C38.6948 21.6448 39.0619 21.865 39.5676 22.0608C40.0897 22.2566 40.8239 22.4605 41.7702 22.6726C43.989 23.1621 45.5797 23.7902 46.5423 24.557C47.5212 25.3238 48.0107 26.3762 48.0107 27.714C48.0107 28.7582 47.717 29.68 47.1297 30.4794C46.5586 31.2788 45.7429 31.8988 44.6824 32.3393C43.6382 32.7798 42.4228 33.0001 41.036 33.0001Z" fill="white"/>
<path d="M64.318 15.4043C64.889 15.4043 65.3458 15.5756 65.6884 15.9182C66.0311 16.2608 66.2024 16.7177 66.2024 17.2887V31.0178C66.2024 31.5888 66.0311 32.0538 65.6884 32.4127C65.3458 32.7554 64.889 32.9267 64.318 32.9267C63.7469 32.9267 63.2901 32.7554 62.9475 32.4127C62.6212 32.0701 62.4581 31.6052 62.4581 31.0178V25.5359H54.5045V31.0178C54.5045 31.5888 54.3332 32.0538 53.9905 32.4127C53.6479 32.7554 53.1993 32.9267 52.6445 32.9267C52.0735 32.9267 51.6167 32.7554 51.2741 32.4127C50.9315 32.0701 50.7602 31.6052 50.7602 31.0178V17.2887C50.7602 16.7177 50.9315 16.2608 51.2741 15.9182C51.6167 15.5756 52.0735 15.4043 52.6445 15.4043C53.2156 15.4043 53.6642 15.5756 53.9905 15.9182C54.3332 16.2608 54.5045 16.7177 54.5045 17.2887V22.5013H62.4581V17.2887C62.4581 16.7177 62.6212 16.2608 62.9475 15.9182C63.2901 15.5756 63.7469 15.4043 64.318 15.4043Z" fill="white"/>
<path d="M91.03 16.5546C91.1768 16.1631 91.3971 15.8694 91.6908 15.6736C92.0007 15.4615 92.3434 15.3555 92.7186 15.3555C93.1917 15.3555 93.5915 15.5023 93.9178 15.796C94.2604 16.0896 94.4317 16.4894 94.4317 16.9951C94.4317 17.2399 94.3827 17.5091 94.2849 17.8027L89.1946 31.7276C89.0477 32.1192 88.7867 32.4292 88.4114 32.6576C88.0525 32.8697 87.6528 32.9757 87.2123 32.9757C86.7718 32.9757 86.3721 32.8697 86.0131 32.6576C85.6542 32.4292 85.4013 32.1192 85.2545 31.7276L81.6081 21.4247L77.8637 31.7276C77.7169 32.1192 77.464 32.4292 77.1051 32.6576C76.7462 32.8697 76.3464 32.9757 75.9059 32.9757C75.4817 32.9757 75.082 32.8697 74.7068 32.6576C74.3479 32.4292 74.095 32.1192 73.9481 31.7276L68.8578 17.8027C68.7599 17.5254 68.711 17.2643 68.711 17.0196C68.711 16.5138 68.8905 16.1141 69.2494 15.8204C69.6083 15.5105 70.0325 15.3555 70.522 15.3555C70.9135 15.3555 71.2643 15.4615 71.5743 15.6736C71.9006 15.8694 72.1372 16.1631 72.284 16.5546L76.0528 27.396L79.9684 16.6036C80.1152 16.212 80.3436 15.9102 80.6536 15.6981C80.9799 15.486 81.3225 15.3799 81.6815 15.3799C82.0567 15.3799 82.3993 15.486 82.7093 15.6981C83.0193 15.9102 83.2477 16.2202 83.3945 16.628L87.1389 27.5918L91.03 16.5546Z" fill="white"/>
<path d="M104.384 33.0001C102.671 33.0001 101.178 32.6411 99.9059 31.9233C98.6496 31.1891 97.6789 30.1613 96.9937 28.8397C96.3084 27.5019 95.9658 25.9357 95.9658 24.141C95.9658 22.3463 96.3084 20.7883 96.9937 19.4667C97.6789 18.1289 98.6496 17.1011 99.9059 16.3832C101.178 15.6653 102.671 15.3064 104.384 15.3064C106.097 15.3064 107.582 15.6653 108.838 16.3832C110.111 17.1011 111.09 18.1289 111.775 19.4667C112.46 20.7883 112.803 22.3463 112.803 24.141C112.803 25.9357 112.46 27.5019 111.775 28.8397C111.09 30.1613 110.111 31.1891 108.838 31.9233C107.582 32.6411 106.097 33.0001 104.384 33.0001ZM104.384 30.0389C105.82 30.0389 106.946 29.5331 107.762 28.5216C108.594 27.5101 109.01 26.0499 109.01 24.141C109.01 22.2321 108.602 20.7801 107.786 19.7849C106.97 18.7733 105.836 18.2676 104.384 18.2676C102.932 18.2676 101.798 18.7733 100.983 19.7849C100.183 20.7801 99.7835 22.2321 99.7835 24.141C99.7835 26.0499 100.191 27.5101 101.007 28.5216C101.823 29.5331 102.949 30.0389 104.384 30.0389Z" fill="white"/>
<path d="M129.864 30.357C130.108 30.7159 130.231 31.0667 130.231 31.4093C130.231 31.8661 130.043 32.2414 129.668 32.5351C129.309 32.8287 128.885 32.9756 128.395 32.9756C128.085 32.9756 127.783 32.9021 127.49 32.7553C127.196 32.6085 126.951 32.3801 126.755 32.0701L123.525 27.2735C123.248 26.8493 122.954 26.5474 122.644 26.368C122.334 26.1722 121.943 26.0743 121.469 26.0743H119.487V31.0178C119.487 31.6051 119.316 32.0701 118.973 32.4127C118.647 32.7553 118.198 32.9266 117.627 32.9266C117.04 32.9266 116.575 32.7553 116.232 32.4127C115.89 32.0701 115.718 31.6051 115.718 31.0178V17.3131C115.718 16.7421 115.873 16.3016 116.183 15.9916C116.493 15.6816 116.934 15.5266 117.505 15.5266H123.647C125.671 15.5266 127.196 15.9753 128.224 16.8726C129.268 17.7536 129.79 19.0343 129.79 20.7148C129.79 22.0363 129.423 23.1376 128.689 24.0186C127.955 24.8996 126.919 25.4788 125.581 25.7562C126.07 25.854 126.503 26.0498 126.878 26.3435C127.269 26.6209 127.645 27.0287 128.004 27.5671L129.864 30.357ZM123.085 23.1865C124.178 23.1865 124.969 22.9989 125.458 22.6237C125.948 22.2321 126.193 21.6284 126.193 20.8127C126.193 19.9806 125.948 19.377 125.458 19.0017C124.969 18.6265 124.178 18.4388 123.085 18.4388H119.438V23.1865H123.085Z" fill="white"/>
<path d="M146.851 29.9165C147.227 30.2918 147.414 30.6997 147.414 31.1402C147.414 31.597 147.235 31.9967 146.876 32.3393C146.533 32.6819 146.134 32.8533 145.677 32.8533C145.155 32.8533 144.69 32.6412 144.282 32.217L136.695 24.8018V31.0178C136.695 31.6052 136.524 32.0701 136.181 32.4127C135.839 32.7554 135.374 32.9267 134.787 32.9267C134.199 32.9267 133.734 32.7554 133.392 32.4127C133.049 32.0701 132.878 31.6052 132.878 31.0178V17.2887C132.878 16.7177 133.049 16.2608 133.392 15.9182C133.734 15.5756 134.199 15.4043 134.787 15.4043C135.374 15.4043 135.839 15.5756 136.181 15.9182C136.524 16.2608 136.695 16.7177 136.695 17.2887V23.1376L144.086 15.9672C144.445 15.6082 144.853 15.4288 145.31 15.4288C145.766 15.4288 146.166 15.6001 146.509 15.9427C146.851 16.269 147.023 16.6606 147.023 17.1174C147.023 17.5905 146.827 18.0147 146.435 18.39L140.611 23.8473L146.851 29.9165Z" fill="white"/>
<path d="M120.158 4.71774C120.711 4.87182 121.137 5.15281 121.436 5.56068C121.744 5.96856 121.898 6.46708 121.898 7.05623C121.898 7.87198 121.604 8.51099 121.014 8.97325C120.434 9.43551 119.632 9.66664 118.608 9.66664H115.1C114.837 9.66664 114.629 9.59413 114.475 9.44911C114.33 9.30408 114.257 9.10014 114.257 8.83729V0.910893C114.257 0.648044 114.33 0.444106 114.475 0.299078C114.629 0.154051 114.837 0.081543 115.1 0.081543H118.472C119.469 0.081543 120.248 0.303606 120.81 0.747743C121.381 1.18281 121.667 1.79463 121.667 2.58319C121.667 3.09076 121.531 3.53037 121.259 3.90199C120.996 4.2736 120.629 4.54552 120.158 4.71774ZM115.97 4.11952H118.186C119.392 4.11952 119.995 3.67086 119.995 2.77353C119.995 2.32034 119.845 1.98497 119.546 1.76743C119.247 1.5499 118.794 1.44113 118.186 1.44113H115.97V4.11952ZM118.418 8.30705C119.052 8.30705 119.514 8.19376 119.804 7.96716C120.094 7.74055 120.239 7.38706 120.239 6.90668C120.239 6.42629 120.09 6.06826 119.791 5.8326C119.501 5.59694 119.043 5.47911 118.418 5.47911H115.97V8.30705H118.418Z" fill="#73FAAD"/>
<path d="M124.381 9.66664C124.118 9.66664 123.91 9.59413 123.755 9.44911C123.611 9.30408 123.538 9.10014 123.538 8.83729V0.910893C123.538 0.648044 123.611 0.444106 123.755 0.299078C123.91 0.154051 124.118 0.081543 124.381 0.081543H129.289C129.552 0.081543 129.756 0.140458 129.901 0.258291C130.046 0.376126 130.118 0.543804 130.118 0.761338C130.118 0.987941 130.046 1.16469 129.901 1.29158C129.756 1.40941 129.552 1.46832 129.289 1.46832H125.251V4.10593H129.017C129.28 4.10593 129.484 4.16484 129.629 4.28267C129.774 4.40051 129.846 4.57271 129.846 4.79932C129.846 5.01685 129.774 5.18453 129.629 5.30236C129.484 5.4202 129.28 5.47911 129.017 5.47911H125.251V8.27986H129.289C129.552 8.27986 129.756 8.34331 129.901 8.4702C130.046 8.58804 130.118 8.76024 130.118 8.98685C130.118 9.20438 130.046 9.37206 129.901 9.48989C129.756 9.60773 129.552 9.66664 129.289 9.66664H124.381Z" fill="#73FAAD"/>
<path d="M134.698 9.73462C134.426 9.73462 134.209 9.65757 134.046 9.50349C133.892 9.34034 133.815 9.12733 133.815 8.86448V1.52271H131.34C130.796 1.52271 130.524 1.28251 130.524 0.802126C130.524 0.321743 130.796 0.081543 131.34 0.081543H138.042C138.586 0.081543 138.858 0.321743 138.858 0.802126C138.858 1.28251 138.586 1.52271 138.042 1.52271H135.568V8.86448C135.568 9.12733 135.487 9.34034 135.324 9.50349C135.17 9.65757 134.961 9.73462 134.698 9.73462Z" fill="#73FAAD"/>
<path d="M147.402 8.61979C147.456 8.73763 147.483 8.85545 147.483 8.97328C147.483 9.18175 147.397 9.3585 147.225 9.50352C147.062 9.64855 146.871 9.72106 146.654 9.72106C146.508 9.72106 146.372 9.6848 146.246 9.61229C146.119 9.53071 146.019 9.40835 145.947 9.2452L145.131 7.42335H140.345L139.53 9.2452C139.457 9.40835 139.357 9.53071 139.23 9.61229C139.104 9.6848 138.963 9.72106 138.809 9.72106C138.601 9.72106 138.411 9.64855 138.238 9.50352C138.065 9.3585 137.98 9.18175 137.98 8.97328C137.98 8.85545 138.007 8.73763 138.061 8.61979L141.814 0.557432C141.895 0.376159 142.018 0.2402 142.181 0.149555C142.353 0.049852 142.534 0 142.725 0C142.915 0 143.092 0.049852 143.255 0.149555C143.427 0.2402 143.554 0.376159 143.636 0.557432L147.402 8.61979ZM140.944 6.06376H144.533L142.738 2.02579L140.944 6.06376Z" fill="#73FAAD"/>
</svg>
