<svg width="345" height="42" viewBox="0 0 345 42" fill="none" xmlns="http://www.w3.org/2000/svg">
<path d="M35.7143 0.228938C36.9735 0.228938 37.9846 0.648657 38.7478 1.4881C39.549 2.28938 39.9497 3.33867 39.9497 4.63599V37.1451C39.9497 38.4043 39.5872 39.3964 38.8622 40.1213C38.1373 40.8463 37.1833 41.2088 36.0005 41.2088C34.8558 41.2088 33.921 40.8463 33.196 40.1213C32.471 39.3964 32.1086 38.4043 32.1086 37.1451V16.9414L23.9813 32.223C23.4471 33.215 22.8556 33.94 22.207 34.3979C21.5965 34.8558 20.8524 35.0847 19.9748 35.0847C19.1354 35.0847 18.3913 34.8558 17.7427 34.3979C17.094 33.94 16.5026 33.215 15.9684 32.223L7.84113 17.2276V37.1451C7.84113 38.3661 7.47864 39.3582 6.75367 40.1213C6.0287 40.8463 5.07479 41.2088 3.89194 41.2088C2.74726 41.2088 1.81243 40.8463 1.08746 40.1213C0.362485 39.3964 0 38.4043 0 37.1451V4.63599C0 3.33867 0.381563 2.28938 1.14469 1.4881C1.94597 0.648657 2.97619 0.228938 4.23535 0.228938C6.06686 0.228938 7.45956 1.20192 8.41347 3.14789L20.0321 25.1831L31.5934 3.14789C32.6237 1.20192 33.9973 0.228938 35.7143 0.228938Z" fill="white"/>
<path d="M52.2435 40.8654C50.908 40.8654 49.8778 40.5029 49.1528 39.7779C48.4278 39.053 48.0653 38.0227 48.0653 36.6873V4.69322C48.0653 3.35775 48.4278 2.32753 49.1528 1.60256C49.8778 0.877595 50.908 0.51511 52.2435 0.51511H72.5045C75.328 0.51511 76.7398 1.6598 76.7398 3.94917C76.7398 6.27671 75.328 7.44047 72.5045 7.44047H56.765V16.8842H71.3598C74.1834 16.8842 75.5951 18.0479 75.5951 20.3755C75.5951 22.6648 74.1834 23.8095 71.3598 23.8095H56.765V33.94H72.5045C75.328 33.94 76.7398 35.1038 76.7398 37.4313C76.7398 39.7207 75.328 40.8654 72.5045 40.8654H52.2435Z" fill="white"/>
<path d="M95.9711 41.3805C92.9567 41.3805 90.1522 41.0371 87.5576 40.3503C84.963 39.6253 82.8453 38.6142 81.2046 37.3168C80.6322 36.8971 80.2125 36.4583 79.9454 36.0004C79.7165 35.5044 79.602 34.8939 79.602 34.1689C79.602 33.215 79.8882 32.3756 80.4605 31.6506C81.071 30.9257 81.7578 30.5632 82.521 30.5632C82.9407 30.5632 83.3413 30.6395 83.7229 30.7921C84.1426 30.9066 84.6386 31.1355 85.211 31.4789C86.8517 32.5091 88.5115 33.2723 90.1904 33.7683C91.8693 34.2262 93.7198 34.4551 95.7421 34.4551C98.2604 34.4551 100.187 34.0354 101.523 33.196C102.858 32.3565 103.526 31.1546 103.526 29.5902C103.526 28.4074 102.896 27.4534 101.637 26.7285C100.416 26.0035 98.2223 25.3167 95.0553 24.668C91.5068 23.9431 88.6641 23.0655 86.5274 22.0352C84.4288 21.005 82.8834 19.7268 81.8914 18.2005C80.9375 16.6743 80.4605 14.8237 80.4605 12.6488C80.4605 10.245 81.1473 8.08913 82.521 6.18132C83.9327 4.23535 85.8596 2.72817 88.3016 1.6598C90.7818 0.553265 93.5672 0 96.6579 0C102.076 0 106.54 1.35455 110.051 4.06365C110.623 4.52152 111.024 4.99847 111.253 5.4945C111.52 5.95238 111.653 6.52473 111.653 7.21154C111.653 8.16545 111.348 9.00488 110.738 9.72985C110.165 10.4548 109.497 10.8173 108.734 10.8173C108.315 10.8173 107.914 10.7601 107.532 10.6456C107.189 10.5311 106.693 10.2831 106.044 9.90156C104.48 8.90949 103.03 8.16544 101.695 7.66941C100.397 7.17338 98.7374 6.92536 96.7151 6.92536C94.3876 6.92536 92.5561 7.38324 91.2206 8.29899C89.8851 9.17659 89.2174 10.3976 89.2174 11.962C89.2174 12.8777 89.4654 13.6409 89.9614 14.2514C90.4956 14.8237 91.3541 15.3388 92.537 15.7967C93.758 16.2546 95.475 16.7315 97.6881 17.2276C102.877 18.3722 106.598 19.8413 108.849 21.6346C111.138 23.428 112.283 25.889 112.283 29.0178C112.283 31.4598 111.596 33.6157 110.222 35.4853C108.887 37.355 106.979 38.8049 104.499 39.8352C102.057 40.8654 99.2143 41.3805 95.9711 41.3805Z" fill="white"/>
<path d="M150.422 0.228938C151.758 0.228938 152.826 0.62958 153.627 1.43086C154.428 2.23214 154.829 3.30052 154.829 4.63599V36.7445C154.829 38.08 154.428 39.1674 153.627 40.0069C152.826 40.8081 151.758 41.2088 150.422 41.2088C149.087 41.2088 148.018 40.8081 147.217 40.0069C146.454 39.2056 146.072 38.1181 146.072 36.7445V23.924H127.471V36.7445C127.471 38.08 127.07 39.1674 126.269 40.0069C125.468 40.8081 124.419 41.2088 123.121 41.2088C121.786 41.2088 120.717 40.8081 119.916 40.0069C119.115 39.2056 118.714 38.1181 118.714 36.7445V4.63599C118.714 3.30052 119.115 2.23214 119.916 1.43086C120.717 0.62958 121.786 0.228938 123.121 0.228938C124.457 0.228938 125.506 0.62958 126.269 1.43086C127.07 2.23214 127.471 3.30052 127.471 4.63599V16.8269H146.072V4.63599C146.072 3.30052 146.454 2.23214 147.217 1.43086C148.018 0.62958 149.087 0.228938 150.422 0.228938Z" fill="white"/>
<path d="M212.893 2.91896C213.236 2.00321 213.751 1.31639 214.438 0.858516C215.163 0.362486 215.964 0.11447 216.842 0.11447C217.948 0.11447 218.883 0.457878 219.646 1.14469C220.448 1.8315 220.848 2.76633 220.848 3.94917C220.848 4.52152 220.734 5.1511 220.505 5.83791L208.6 38.4043C208.257 39.32 207.646 40.045 206.769 40.5792C205.929 41.0752 204.994 41.3232 203.964 41.3232C202.934 41.3232 201.999 41.0752 201.16 40.5792C200.32 40.045 199.729 39.32 199.385 38.4043L190.857 14.3086L182.1 38.4043C181.757 39.32 181.166 40.045 180.326 40.5792C179.487 41.0752 178.552 41.3232 177.522 41.3232C176.53 41.3232 175.595 41.0752 174.717 40.5792C173.878 40.045 173.286 39.32 172.943 38.4043L161.038 5.83791C160.809 5.18926 160.695 4.57875 160.695 4.00641C160.695 2.82357 161.114 1.88874 161.954 1.20192C162.793 0.476956 163.785 0.11447 164.93 0.11447C165.846 0.11447 166.666 0.362486 167.391 0.858516C168.154 1.31639 168.708 2.00321 169.051 2.91896L177.865 28.2738L187.023 3.03343C187.366 2.11767 187.9 1.41178 188.625 0.915752C189.388 0.41972 190.19 0.171704 191.029 0.171704C191.907 0.171704 192.708 0.41972 193.433 0.915752C194.158 1.41178 194.692 2.13675 195.035 3.09066L203.792 28.7317L212.893 2.91896Z" fill="white"/>
<path d="M244.126 41.3805C240.119 41.3805 236.628 40.541 233.652 38.8622C230.714 37.1451 228.443 34.7413 226.841 31.6506C225.238 28.5218 224.437 24.8588 224.437 20.6616C224.437 16.4644 225.238 12.8205 226.841 9.72985C228.443 6.60104 230.714 4.19719 233.652 2.51832C236.628 0.839439 240.119 0 244.126 0C248.132 0 251.604 0.839439 254.542 2.51832C257.519 4.19719 259.808 6.60104 261.41 9.72985C263.013 12.8205 263.814 16.4644 263.814 20.6616C263.814 24.8588 263.013 28.5218 261.41 31.6506C259.808 34.7413 257.519 37.1451 254.542 38.8622C251.604 40.541 248.132 41.3805 244.126 41.3805ZM244.126 34.4551C247.483 34.4551 250.116 33.2723 252.024 30.9066C253.97 28.5409 254.943 25.1259 254.943 20.6616C254.943 16.1973 253.989 12.8014 252.081 10.4739C250.173 8.10821 247.522 6.92536 244.126 6.92536C240.73 6.92536 238.078 8.10821 236.17 10.4739C234.3 12.8014 233.366 16.1973 233.366 20.6616C233.366 25.1259 234.32 28.5409 236.227 30.9066C238.135 33.2723 240.768 34.4551 244.126 34.4551Z" fill="white"/>
<path d="M303.713 35.1992C304.285 36.0386 304.572 36.859 304.572 37.6602C304.572 38.7286 304.133 39.6062 303.255 40.293C302.416 40.9798 301.424 41.3232 300.279 41.3232C299.554 41.3232 298.848 41.1515 298.161 40.8081C297.474 40.4647 296.902 39.9305 296.444 39.2056L288.889 27.9876C288.241 26.9956 287.554 26.2897 286.829 25.87C286.104 25.4121 285.188 25.1831 284.082 25.1831H279.446V36.7445C279.446 38.1181 279.045 39.2056 278.244 40.0069C277.481 40.8081 276.431 41.2088 275.096 41.2088C273.722 41.2088 272.635 40.8081 271.833 40.0069C271.032 39.2056 270.632 38.1181 270.632 36.7445V4.69322C270.632 3.35775 270.994 2.32753 271.719 1.60256C272.444 0.877595 273.474 0.51511 274.81 0.51511H289.175C293.907 0.51511 297.474 1.56441 299.878 3.663C302.32 5.72344 303.541 8.71871 303.541 12.6488C303.541 15.7395 302.683 18.315 300.966 20.3755C299.249 22.4359 296.826 23.7904 293.697 24.4391C294.842 24.668 295.853 25.1259 296.73 25.8127C297.646 26.4614 298.524 27.4153 299.363 28.6744L303.713 35.1992ZM287.859 18.4295C290.416 18.4295 292.266 17.9907 293.411 17.1131C294.556 16.1973 295.128 14.7856 295.128 12.8777C295.128 10.9318 294.556 9.51999 293.411 8.6424C292.266 7.7648 290.416 7.32601 287.859 7.32601H279.331V18.4295H287.859Z" fill="white"/>
<path d="M343.444 34.1689C344.321 35.0465 344.76 36.0004 344.76 37.0307C344.76 38.099 344.34 39.0339 343.501 39.8352C342.7 40.6364 341.765 41.0371 340.696 41.0371C339.475 41.0371 338.388 40.541 337.434 39.549L319.691 22.207V36.7445C319.691 38.1181 319.291 39.2056 318.489 40.0069C317.688 40.8081 316.601 41.2088 315.227 41.2088C313.853 41.2088 312.766 40.8081 311.965 40.0069C311.163 39.2056 310.763 38.1181 310.763 36.7445V4.63599C310.763 3.30052 311.163 2.23214 311.965 1.43086C312.766 0.62958 313.853 0.228938 315.227 0.228938C316.601 0.228938 317.688 0.62958 318.489 1.43086C319.291 2.23214 319.691 3.30052 319.691 4.63599V18.315L336.976 1.54533C337.816 0.705891 338.769 0.286172 339.838 0.286172C340.906 0.286172 341.841 0.686813 342.642 1.4881C343.444 2.25122 343.844 3.16697 343.844 4.23535C343.844 5.34188 343.386 6.33394 342.471 7.21154L328.849 19.9748L343.444 34.1689Z" fill="white"/>
</svg>
